<?xml version="1.0" encoding="utf-8" standalone="yes"?>
<!DOCTYPE svg PUBLIC "-//W3C//DTD SVG 1.1//EN" "http://www.w3.org/Graphics/SVG/1.1/DTD/svg11.dtd">
<svg style="fill:none;stroke:none;fill-rule:evenodd;clip-rule:evenodd;stroke-linecap:round;stroke-linejoin:round;stroke-miterlimit:1.5;" version="1.1" xmlns="http://www.w3.org/2000/svg" xmlns:xlink="http://www.w3.org/1999/xlink" width="2610" height="554" viewBox="0 0 2610 554"><style class="text-font-style fontImports" data-font-family="Roboto">@import url(https://fonts.googleapis.com/css2?family=Roboto:wght@400;700&amp;amp;display=block);</style><g id="items" style="isolation: isolate"><g id="blend" style="mix-blend-mode: normal"><g id="g-root-cp_2_lines-2_v9v28t1ol7k0e-fill" data-item-order="-20367" transform="translate(219.46878051757812, 104.99609375)"><g id="cp_2_lines-2_v9v28t1ol7k0e-fill-merged" stroke="none" fill="#1eabda" fill-opacity="0.2"><g><path d="M176.609 127.992 H178.609C180.818 127.992 182.609 126.201 182.609 123.992 V14C182.609 11.791 180.818 10 178.609 10 H14C11.791 10 10 11.791 10 14 V123.992C10 126.201 11.791 127.992 14 127.992 H176.609"></path></g></g></g><g id="g-root-cp_2_lines-2_v9v28t1ol7k0e-stroke" data-item-order="-20367" transform="translate(219.46878051757812, 104.99609375)"><g id="cp_2_lines-2_v9v28t1ol7k0e-stroke" fill="none" stroke-linecap="round" stroke-linejoin="round" stroke-miterlimit="4" stroke="#1eabda" stroke-width="2" stroke-opacity="1"><g><path d="M 16 10L 14 10C 11.7909 10 10 11.7909 10 14L 10 16M 10 16L 10 121.992188M 182.609375 16L 182.609375 121.992188M 16 10L 176.609375 10M 16 127.992188L 14 127.992188C 11.7909 127.992188 10 126.201288 10 123.992188L 10 121.992188M 176.609375 10L 178.609375 10C 180.818475 10 182.609375 11.7909 182.609375 14L 182.609375 16M 176.609375 127.992188L 16 127.992188M 176.609375 127.992188L 178.609375 127.992188C 180.818475 127.992188 182.609375 126.201288 182.609375 123.992188L 182.609375 121.992188"></path></g></g></g><g id="g-root-cp_5_lines-5_dj7iu51ol7j7t-fill" data-item-order="-17597" transform="translate(867.6796875, 98)"><g id="cp_5_lines-5_dj7iu51ol7j7t-fill-merged" stroke="none" fill="#1eabda" fill-opacity="0.2"><g><path d="M139.328 141.984C141.537 141.984 143.328 140.193 143.328 137.984 V135.984 V14C143.328 11.791 141.537 10 139.328 10 H14C11.791 10 10 11.791 10 14 V137.984C10 140.193 11.791 141.984 14 141.984 H139.328"></path></g></g></g><g id="g-root-cp_5_lines-5_dj7iu51ol7j7t-stroke" data-item-order="-17597" transform="translate(867.6796875, 98)"><g id="cp_5_lines-5_dj7iu51ol7j7t-stroke" fill="none" stroke-linecap="round" stroke-linejoin="round" stroke-miterlimit="4" stroke="#1eabda" stroke-width="2" stroke-opacity="1"><g><path d="M 16 10L 14 10C 11.7909 10 10 11.7909 10 14L 10 16M 10 16L 10 135.984375M 143.328125 16L 143.328125 135.984375M 16 10L 137.328133 10M 16 141.984375L 14 141.984375C 11.7909 141.984375 10 140.193475 10 137.984375L 10 135.984375M 137.328125 10L 139.328125 10C 141.537225 10 143.328125 11.7909 143.328125 14L 143.328125 16M 137.328133 141.984375L 16 141.984375M 137.328125 141.984375L 139.328125 141.984375C 141.537225 141.984375 143.328125 140.193475 143.328125 137.984375L 143.328125 135.984375"></path></g></g></g><g id="g-root-cp_3_lines-3_qu1k4d1ol7ksn-fill" data-item-order="-17492" transform="translate(464.078125, 98)"><g id="cp_3_lines-3_qu1k4d1ol7ksn-fill-merged" stroke="none" fill="#1eabda" fill-opacity="0.2"><g><path d="M136.531 141.984 H138.531C140.74 141.984 142.531 140.193 142.531 137.984 V14C142.531 11.791 140.74 10 138.531 10 H14C11.791 10 10 11.791 10 14 V137.984C10 140.193 11.791 141.984 14 141.984 H136.531"></path></g></g></g><g id="g-root-cp_3_lines-3_qu1k4d1ol7ksn-stroke" data-item-order="-17492" transform="translate(464.078125, 98)"><g id="cp_3_lines-3_qu1k4d1ol7ksn-stroke" fill="none" stroke-linecap="round" stroke-linejoin="round" stroke-miterlimit="4" stroke="#1eabda" stroke-width="2" stroke-opacity="1"><g><path d="M 16 10L 14 10C 11.7909 10 10 11.7909 10 14L 10 16M 10 16L 10 135.984375M 142.53125 16L 142.53125 135.984375M 16 10L 136.53125 10M 16 141.984375L 14 141.984375C 11.7909 141.984375 10 140.193475 10 137.984375L 10 135.984375M 136.53125 10L 138.53125 10C 140.74035 10 142.53125 11.7909 142.53125 14L 142.53125 16M 136.53125 141.984375L 16 141.984375M 136.53125 141.984375L 138.53125 141.984375C 140.74035 141.984375 142.53125 140.193475 142.53125 137.984375L 142.53125 135.984375"></path></g></g></g><g id="g-root-cp_12_lines-12_1d2e0wt1ol7klc-fill" data-item-order="-17389" transform="translate(1679.0078125, 207.00390625)"><g id="cp_12_lines-12_1d2e0wt1ol7klc-fill-merged" stroke="none" fill="#1eabda" fill-opacity="0.2"><g><path d="M123.125 155.977 H125.125C127.334 155.977 129.125 154.186 129.125 151.977 V14C129.125 11.791 127.334 10 125.125 10 H14C11.791 10 10 11.791 10 14 V151.977C10 154.186 11.791 155.977 14 155.977 H123.125"></path></g></g></g><g id="g-root-cp_12_lines-12_1d2e0wt1ol7klc-stroke" data-item-order="-17389" transform="translate(1679.0078125, 207.00390625)"><g id="cp_12_lines-12_1d2e0wt1ol7klc-stroke" fill="none" stroke-linecap="round" stroke-linejoin="round" stroke-miterlimit="4" stroke="#1eabda" stroke-width="2" stroke-opacity="1"><g><path d="M 16 10L 14 10C 11.7909 10 10 11.7909 10 14L 10 16M 10 16L 10 149.976563M 129.125 16L 129.125 149.976563M 16 10L 123.125 10M 16 155.976563L 14 155.976563C 11.7909 155.976563 10 154.185663 10 151.976563L 10 149.976563M 123.125 10L 125.125 10C 127.3341 10 129.125 11.7909 129.125 14L 129.125 16M 123.125 155.976563L 16 155.976563M 123.125 155.976563L 125.125 155.976563C 127.3341 155.976563 129.125 154.185663 129.125 151.976563L 129.125 149.976563"></path></g></g></g><g id="g-root-cp_4_lines-4_me81zx1ol7lkw-fill" data-item-order="-15757" transform="translate(668.609375, 101.9921875)"><g id="cp_4_lines-4_me81zx1ol7lkw-fill-merged" stroke="none" fill="#de8431" fill-opacity="0.2"><g><path d="M10 103C10 104.5 10.948 106 12.8 106.871L70.144 133.167C72.353 134.277 74.718 134.277 76.926 133.167L134.27 106.871C136.122 106 137.07 104.5 137.07 103C137.07 89.892 137.07 56.308 137.07 41C137.07 39.5 136.122 38 134.27 37.129L76.926 10.833C74.718 9.722 72.353 9.722 70.144 10.833L12.8 37.129C10.948 38 10 39.5 10 41C10 54.562 10 89.892 10 103"></path></g></g></g><g id="g-root-cp_4_lines-4_me81zx1ol7lkw-stroke" data-item-order="-15757" transform="translate(668.609375, 101.9921875)"><g id="cp_4_lines-4_me81zx1ol7lkw-stroke" fill="none" stroke-linecap="round" stroke-linejoin="round" stroke-miterlimit="4" stroke="#de8431" stroke-width="2" stroke-opacity="1"><g><path d="M 10 41C 10 39.5 10.94831 38 12.800264 37.128901L 70.143917 10.8325C 72.352631 9.7225 74.717682 9.7225 76.926392 10.8325L 134.270042 37.128901C 136.121994 38 137.070313 39.5 137.070313 41M 10 103C 10 104.5 10.94831 106 12.800264 106.871101L 70.143917 133.167503C 72.352631 134.277496 74.717682 134.277496 76.926392 133.167503L 134.270042 106.871101C 136.121994 106 137.070313 104.5 137.070313 103M 10.000289 41.000515C 9.999711 54.56181 10.000096 89.891998 10.000289 103M 137.070313 103C 137.070313 89.891998 137.070313 56.307629 137.070313 41"></path></g></g></g><g id="g-root-cp_16_lines-16_qvwzdp1ol7jt8-fill" data-item-order="-15620" transform="translate(2448.9921875, 314.990234375)"><g id="cp_16_lines-16_qvwzdp1ol7jt8-fill-merged" stroke="none" fill="#3cc583" fill-opacity="0.2"><g><path d="M10 18.002C10 68.15 10 124.992 10 124.992 H137C137 124.992 137 74.606 137 18 H10"></path></g></g><g id="cp_16_lines-16_qvwzdp1ol7jt8-fill-merged" stroke="none" fill="#3cc583" fill-opacity="0.2"><g><path d="M137 18C137 13.582 108.57 10 73.5 10C38.43 10 10 13.582 10 18 H137 M137 124.992C137 129.41 108.57 132.992 73.5 132.992C38.43 132.992 10 129.41 10 124.992 H137"></path></g></g></g><g id="g-root-cp_16_lines-16_qvwzdp1ol7jt8-stroke" data-item-order="-15620" transform="translate(2448.9921875, 314.990234375)"><g id="cp_16_lines-16_qvwzdp1ol7jt8-stroke" fill="none" stroke-linecap="round" stroke-linejoin="round" stroke-miterlimit="4" stroke="#3cc583" stroke-width="2" stroke-opacity="1"><g><path d="M 10.000289 18.001083C 9.999711 53.105221 10.000096 91.062119 10.000289 124.992188M 137 124.992188C 137 91.062119 137 57.623943 137 18"></path></g></g><g id="cp_16_lines-16_qvwzdp1ol7jt8-stroke" fill="none" stroke-linecap="round" stroke-linejoin="round" stroke-miterlimit="4" stroke="#3cc583" stroke-width="2" stroke-opacity="1"><g><path d="M 137 18C 137 13.5817 108.570084 10 73.5 10C 38.429911 10 10 13.5817 10 18M 137 18.000001C 137 22.4183 108.570084 26 73.5 26C 38.429911 26 10 22.4183 10 18M 137 124.992188C 137 129.410484 108.570084 132.992188 73.5 132.992188C 38.429911 132.992188 10 129.410484 10 124.992188"></path></g></g></g><g id="g-root-cp_15_lines-15_zrjzml1ol7j0j-fill" data-item-order="-15273" transform="translate(2247.5546875, 317.490234375)"><g id="cp_15_lines-15_zrjzml1ol7j0j-fill-merged" stroke="none" fill="#1eabda" fill-opacity="0.2"><g><path d="M133.438 127.992 H135.438C137.647 127.992 139.438 126.201 139.438 123.992 V14C139.438 11.791 137.647 10 135.438 10 H14C11.791 10 10 11.791 10 14 V123.992C10 126.201 11.791 127.992 14 127.992 H133.438"></path></g></g></g><g id="g-root-cp_15_lines-15_zrjzml1ol7j0j-stroke" data-item-order="-15273" transform="translate(2247.5546875, 317.490234375)"><g id="cp_15_lines-15_zrjzml1ol7j0j-stroke" fill="none" stroke-linecap="round" stroke-linejoin="round" stroke-miterlimit="4" stroke="#1eabda" stroke-width="2" stroke-opacity="1"><g><path d="M 16 10L 14 10C 11.7909 10 10 11.7909 10 14L 10 16M 10 16L 10 121.992188M 139.4375 16L 139.4375 121.992188M 16 10L 133.4375 10M 16 127.992188L 14 127.992188C 11.7909 127.992188 10 126.201288 10 123.992188L 10 121.992188M 133.4375 10L 135.4375 10C 137.6466 10 139.4375 11.7909 139.4375 14L 139.4375 16M 133.4375 127.992188L 16 127.992188M 133.4375 127.992188L 135.4375 127.992188C 137.6466 127.992188 139.4375 126.201288 139.4375 123.992188L 139.4375 121.992188"></path></g></g></g><g id="g-root-cp_10_lines-10_1ly115p1ol7j0u-fill" data-item-order="-14560" transform="translate(1477.0078125, 383.9921875)"><g id="cp_10_lines-10_1ly115p1ol7j0u-fill-merged" stroke="none" fill="#de8431" fill-opacity="0.2"><g><path d="M10 91C10 92.5 10.97 94 12.865 94.871L71.531 121.168C73.79 122.277 76.21 122.277 78.469 121.168L137.135 94.871C139.03 94 140 92.5 140 91C140 80.429 140 53.345 140 41C140 39.5 139.03 38 137.135 37.129L78.469 10.833C76.21 9.722 73.79 9.722 71.531 10.833L12.865 37.129C10.97 38 10 39.5 10 41C10 51.937 10 80.429 10 91"></path></g></g></g><g id="g-root-cp_10_lines-10_1ly115p1ol7j0u-stroke" data-item-order="-14560" transform="translate(1477.0078125, 383.9921875)"><g id="cp_10_lines-10_1ly115p1ol7j0u-stroke" fill="none" stroke-linecap="round" stroke-linejoin="round" stroke-miterlimit="4" stroke="#de8431" stroke-width="2" stroke-opacity="1"><g><path d="M 10 41C 10 39.5 10.970174 38 12.864826 37.128901L 71.530575 10.8325C 73.790211 9.7225 76.209793 9.7225 78.469421 10.8325L 137.13517 37.128901C 139.029816 38 140 39.5 140 41M 10 91C 10 92.5 10.970174 94 12.864826 94.871101L 71.530575 121.167503C 73.790211 122.277496 76.209793 122.277496 78.469421 121.167503L 137.13517 94.871101C 139.029816 94 140 92.5 140 91M 10.000295 41.000414C 9.999705 51.936943 10.000098 80.429024 10.000295 91M 140 91C 140 80.429024 140 53.34486 140 40.999998"></path></g></g></g><g id="g-root-cp_6_lines-6_dj7iu51ol7j7u-fill" data-item-order="-14560" transform="translate(1073.0078125, 107.9921875)"><g id="cp_6_lines-6_dj7iu51ol7j7u-fill-merged" stroke="none" fill="#de8431" fill-opacity="0.2"><g><path d="M10 91C10 92.5 10.97 94 12.865 94.871L71.531 121.168C73.79 122.277 76.21 122.277 78.469 121.168L137.135 94.871C139.03 94 140 92.5 140 91C140 80.429 140 53.345 140 41C140 39.5 139.03 38 137.135 37.129L78.469 10.833C76.21 9.722 73.79 9.722 71.531 10.833L12.865 37.129C10.97 38 10 39.5 10 41C10 51.937 10 80.429 10 91"></path></g></g></g><g id="g-root-cp_6_lines-6_dj7iu51ol7j7u-stroke" data-item-order="-14560" transform="translate(1073.0078125, 107.9921875)"><g id="cp_6_lines-6_dj7iu51ol7j7u-stroke" fill="none" stroke-linecap="round" stroke-linejoin="round" stroke-miterlimit="4" stroke="#de8431" stroke-width="2" stroke-opacity="1"><g><path d="M 10 41C 10 39.5 10.970174 38 12.864826 37.128901L 71.530575 10.8325C 73.790211 9.7225 76.209793 9.7225 78.469421 10.8325L 137.13517 37.128901C 139.029816 38 140 39.5 140 41M 10 91C 10 92.5 10.970174 94 12.864826 94.871101L 71.530575 121.167503C 73.790211 122.277496 76.209793 122.277496 78.469421 121.167503L 137.13517 94.871101C 139.029816 94 140 92.5 140 91M 10.000295 41.000414C 9.999705 51.936943 10.000098 80.429024 10.000295 91M 140 91C 140 80.429024 140 53.34486 140 40.999998"></path></g></g></g><g id="g-root-cp_8_lines-8_7r0gt1ol7kss-fill" data-item-order="-14560" transform="translate(1275.0078125, 223.9921875)"><g id="cp_8_lines-8_7r0gt1ol7kss-fill-merged" stroke="none" fill="#de8431" fill-opacity="0.2"><g><path d="M10 91C10 92.5 10.97 94 12.865 94.871L71.531 121.168C73.79 122.277 76.21 122.277 78.469 121.168L137.135 94.871C139.03 94 140 92.5 140 91C140 80.429 140 53.345 140 41C140 39.5 139.03 38 137.135 37.129L78.469 10.833C76.21 9.722 73.79 9.722 71.531 10.833L12.865 37.129C10.97 38 10 39.5 10 41C10 51.937 10 80.429 10 91"></path></g></g></g><g id="g-root-cp_8_lines-8_7r0gt1ol7kss-stroke" data-item-order="-14560" transform="translate(1275.0078125, 223.9921875)"><g id="cp_8_lines-8_7r0gt1ol7kss-stroke" fill="none" stroke-linecap="round" stroke-linejoin="round" stroke-miterlimit="4" stroke="#de8431" stroke-width="2" stroke-opacity="1"><g><path d="M 10 41C 10 39.5 10.970174 38 12.864826 37.128901L 71.530575 10.8325C 73.790211 9.7225 76.209793 9.7225 78.469421 10.8325L 137.13517 37.128901C 139.029816 38 140 39.5 140 41M 10 91C 10 92.5 10.970174 94 12.864826 94.871101L 71.530575 121.167503C 73.790211 122.277496 76.209793 122.277496 78.469421 121.167503L 137.13517 94.871101C 139.029816 94 140 92.5 140 91M 10.000295 41.000414C 9.999705 51.936943 10.000098 80.429024 10.000295 91M 140 91C 140 80.429024 140 53.34486 140 40.999998"></path></g></g></g><g id="g-root-cp_1_lines-1_145i2hp1ol7j7p-fill" data-item-order="-14276" transform="translate(20.000030517578125, 107.99609375)"><g id="cp_1_lines-1_145i2hp1ol7j7p-fill-merged" stroke="none" fill="#3cc583" fill-opacity="0.2"><g><path d="M10 115.219C10 117.05 11.276 118.654 13.191 119.071C21.667 120.919 46.002 124.978 73.734 118.301C98.971 112.226 121.394 115.04 131.613 116.988C134.557 117.549 137.469 115.475 137.469 112.679 V14C137.469 11.791 135.678 10 133.469 10 H14C11.791 10 10 11.791 10 14 V115.219"></path></g></g></g><g id="g-root-cp_1_lines-1_145i2hp1ol7j7p-stroke" data-item-order="-14276" transform="translate(20.000030517578125, 107.99609375)"><g id="cp_1_lines-1_145i2hp1ol7j7p-stroke" fill="none" stroke-linecap="round" stroke-linejoin="round" stroke-miterlimit="4" stroke="#3cc583" stroke-width="2" stroke-opacity="1"><g><path d="M 16 10L 14 10C 11.7909 10 10 11.7909 10 14L 10 16M 10 16L 10 111.992188M 137.46875 16L 137.46875 111.992188M 16 10L 131.46875 10M 131.46875 10L 133.46875 10C 135.67785 10 137.46875 11.7909 137.46875 14L 137.46875 16M 137.46875 111.992188L 137.46875 112.678688C 137.46875 115.475388 134.556572 117.549385 131.612816 116.988091C 121.393883 115.039787 98.97126 112.225784 73.734375 118.301285C 46.001617 124.977585 21.667157 120.919189 13.191064 119.07119C 11.275653 118.653587 10 117.050385 10 115.219391L 10 111.992188"></path></g></g></g><g id="g-root-cp_13_lines-13_1d2e0wt1ol7kld-fill" data-item-order="-13654" transform="translate(1870.1328125, 314.990234375)"><g id="cp_13_lines-13_1d2e0wt1ol7kld-fill-merged" stroke="none" fill="#3cc583" fill-opacity="0.2"><g><path d="M10 18.002C10 68.15 10 124.992 10 124.992 H121.016C121.016 124.992 121.016 74.606 121.016 18 H10"></path></g></g><g id="cp_13_lines-13_1d2e0wt1ol7kld-fill-merged" stroke="none" fill="#3cc583" fill-opacity="0.2"><g><path d="M121.016 18C121.016 13.582 96.164 10 65.508 10C34.852 10 10 13.582 10 18 H121.016 M121.016 124.992C121.016 129.41 96.164 132.992 65.508 132.992C34.852 132.992 10 129.41 10 124.992 H121.016"></path></g></g></g><g id="g-root-cp_13_lines-13_1d2e0wt1ol7kld-stroke" data-item-order="-13654" transform="translate(1870.1328125, 314.990234375)"><g id="cp_13_lines-13_1d2e0wt1ol7kld-stroke" fill="none" stroke-linecap="round" stroke-linejoin="round" stroke-miterlimit="4" stroke="#3cc583" stroke-width="2" stroke-opacity="1"><g><path d="M 10.000252 18.001083C 9.999748 53.105221 10.000084 91.062119 10.000252 124.992188M 121.015625 124.992188C 121.015625 91.062119 121.015625 57.623943 121.015625 18"></path></g></g><g id="cp_13_lines-13_1d2e0wt1ol7kld-stroke" fill="none" stroke-linecap="round" stroke-linejoin="round" stroke-miterlimit="4" stroke="#3cc583" stroke-width="2" stroke-opacity="1"><g><path d="M 121.015625 18C 121.015625 13.5817 96.163933 10 65.507813 10C 34.851688 10 10 13.5817 10 18M 121.015625 18.000001C 121.015625 22.4183 96.163933 26 65.507813 26C 34.851688 26 10 22.4183 10 18M 121.015625 124.992188C 121.015625 129.410484 96.163933 132.992188 65.507813 132.992188C 34.851688 132.992188 10 129.410484 10 124.992188"></path></g></g></g><g id="g-root-cp_14_lines-14_146r0nx1ol7le2-fill" data-item-order="-11261" transform="translate(2053.1484375, 330.486328125)"><g id="cp_14_lines-14_146r0nx1ol7le2-fill-merged" stroke="none" fill="#1eabda" fill-opacity="0.2"><g><path d="M126.406 102 H128.406C130.615 102 132.406 100.209 132.406 98 V14C132.406 11.791 130.615 10 128.406 10 H14C11.791 10 10 11.791 10 14 V98C10 100.209 11.791 102 14 102 H126.406"></path></g></g></g><g id="g-root-cp_14_lines-14_146r0nx1ol7le2-stroke" data-item-order="-11261" transform="translate(2053.1484375, 330.486328125)"><g id="cp_14_lines-14_146r0nx1ol7le2-stroke" fill="none" stroke-linecap="round" stroke-linejoin="round" stroke-miterlimit="4" stroke="#1eabda" stroke-width="2" stroke-opacity="1"><g><path d="M 16 10L 14 10C 11.7909 10 10 11.7909 10 14L 10 16M 10 16L 10 96M 132.40625 16L 132.40625 96M 16 10L 126.40625 10M 16 102L 14 102C 11.7909 102 10 100.2091 10 98L 10 96M 126.40625 10L 128.40625 10C 130.61535 10 132.40625 11.7909 132.40625 14L 132.40625 16M 126.40625 102L 16 102M 126.40625 102L 128.40625 102C 130.61535 102 132.40625 100.2091 132.40625 98L 132.40625 96"></path></g></g></g><g id="g-root-cp_9_lines-9_1ut1kbh1ol7ldx-fill" data-item-order="-10160" transform="translate(1477.0078125, 239.9921875)"><g id="cp_9_lines-9_1ut1kbh1ol7ldx-fill-merged" stroke="none" fill="#1eabda" fill-opacity="0.2"><g><path d="M131 90 H133C135.209 90 137 88.209 137 86 V14C137 11.791 135.209 10 133 10 H14C11.791 10 10 11.791 10 14 V86C10 88.209 11.791 90 14 90 H131"></path></g></g></g><g id="g-root-cp_9_lines-9_1ut1kbh1ol7ldx-stroke" data-item-order="-10160" transform="translate(1477.0078125, 239.9921875)"><g id="cp_9_lines-9_1ut1kbh1ol7ldx-stroke" fill="none" stroke-linecap="round" stroke-linejoin="round" stroke-miterlimit="4" stroke="#1eabda" stroke-width="2" stroke-opacity="1"><g><path d="M 16 10L 14 10C 11.7909 10 10 11.7909 10 14L 10 16M 10 16L 10 84M 137 16L 137 84M 16 10L 131 10M 16 90L 14 90C 11.7909 90 10 88.2091 10 86L 10 84M 131 10L 133 10C 135.2091 10 137 11.7909 137 14L 137 16M 131 90L 16 90M 131 90L 133 90C 135.2091 90 137 88.2091 137 86L 137 84"></path></g></g></g><g id="g-root-cp_7_lines-7_93e0pp1ol7k03-fill" data-item-order="-7640" transform="translate(1275.0078125, 123.9921875)"><g id="cp_7_lines-7_93e0pp1ol7k03-fill-merged" stroke="none" fill="#1eabda" fill-opacity="0.2"><g><path d="M99.5 90 H101.5C103.709 90 105.5 88.209 105.5 86 V14C105.5 11.791 103.709 10 101.5 10 H14C11.791 10 10 11.791 10 14 V86C10 88.209 11.791 90 14 90 H99.5"></path></g></g></g><g id="g-root-cp_7_lines-7_93e0pp1ol7k03-stroke" data-item-order="-7640" transform="translate(1275.0078125, 123.9921875)"><g id="cp_7_lines-7_93e0pp1ol7k03-stroke" fill="none" stroke-linecap="round" stroke-linejoin="round" stroke-miterlimit="4" stroke="#1eabda" stroke-width="2" stroke-opacity="1"><g><path d="M 16 10L 14 10C 11.7909 10 10 11.7909 10 14L 10 16M 10 16L 10 84M 105.5 16L 105.5 84M 16 10L 99.5 10M 16 90L 14 90C 11.7909 90 10 88.2091 10 86L 10 84M 99.5 10L 101.5 10C 103.7091 10 105.5 11.7909 105.5 14L 105.5 16M 99.5 90L 16 90M 99.5 90L 101.5 90C 103.7091 90 105.5 88.2091 105.5 86L 105.5 84"></path></g></g></g><g id="g-root-cp_11_lines-11_1hi7j191ol7jt3-fill" data-item-order="-6800" transform="translate(1679.0078125, 399.9921875)"><g id="cp_11_lines-11_1hi7j191ol7jt3-fill-merged" stroke="none" fill="#1eabda" fill-opacity="0.2"><g><path d="M89 90 H91C93.209 90 95 88.209 95 86 V14C95 11.791 93.209 10 91 10 H14C11.791 10 10 11.791 10 14 V86C10 88.209 11.791 90 14 90 H89"></path></g></g></g><g id="g-root-cp_11_lines-11_1hi7j191ol7jt3-stroke" data-item-order="-6800" transform="translate(1679.0078125, 399.9921875)"><g id="cp_11_lines-11_1hi7j191ol7jt3-stroke" fill="none" stroke-linecap="round" stroke-linejoin="round" stroke-miterlimit="4" stroke="#1eabda" stroke-width="2" stroke-opacity="1"><g><path d="M 16 10L 14 10C 11.7909 10 10 11.7909 10 14L 10 16M 10 16L 10 84M 95 16L 95 84M 16 10L 89 10M 16 90L 14 90C 11.7909 90 10 88.2091 10 86L 10 84M 89 10L 91 10C 93.2091 10 95 11.7909 95 14L 95 16M 89 90L 16 90M 89 90L 91 90C 93.2091 90 95 88.2091 95 86L 95 84"></path></g></g></g><g id="g-root-tx_cyolov5s_dl2y3h1ol7jsx-fill" data-item-order="0" transform="translate(1092.3125, 38)"><g id="tx_cyolov5s_dl2y3h1ol7jsx-fill-merged" stroke="none" fill="#484848" fill-opacity="1"><g><text style="font: bold 25px Roboto, sans-serif; white-space: pre;" transform="translate(215.68359375, 25)" font-weight="bold" font-size="25px" font-family="Roboto, sans-serif"><tspan x="-203.68" y="15" dominant-baseline="ideographic">C++ YOLOv5 推理到 SQLite 同步流程</tspan></text></g></g></g><g id="g-root-tx_cyolov5s_dl2y3h1ol7jsx-stroke" data-item-order="0" transform="translate(1092.3125, 38)"></g><g id="g-root-tx_pythonfr_dl31991ol3dom-fill" data-item-order="0" transform="translate(477.89453125, 137)"><g id="tx_pythonfr_dl31991ol3dom-fill-merged" stroke="none" fill="#1eabda" fill-opacity="1"><g><text style="font: bold 12px Roboto, sans-serif; white-space: pre;" transform="translate(62.44921875, 30.9921875)" font-weight="bold" font-size="12px" font-family="Roboto, sans-serif"><tspan x="-19.09" y="-7.49" dominant-baseline="ideographic">Python </tspan><tspan x="-37.14" y="6.5" dominant-baseline="ideographic">fridge_mgr.py </tspan><tspan x="-50.45" y="20.49" dominant-baseline="ideographic">parse_detections()</tspan></text></g></g></g><g id="g-root-tx_pythonfr_dl31991ol3dom-stroke" data-item-order="0" transform="translate(477.89453125, 137)"></g><g id="g-root-ic_1_dfgrh91okz4ss-fill" data-item-order="0" transform="translate(518.34375, 107)"></g><g id="g-root-ic_1_dfgrh91okz4ss-stroke" data-item-order="0" transform="translate(518.34375, 107)"><g id="ic_1_dfgrh91okz4ss-stroke" fill="none" stroke-linecap="round" stroke-linejoin="round" stroke-miterlimit="4" stroke="#1eabda" stroke-width="2" stroke-opacity="1"><g><path d="M 19.542 33.5L 11.542 33.5C 10.989715 33.5 10.542 33.052285 10.542 32.5L 10.542 11.5C 10.542 10.947715 10.989715 10.5 11.542 10.5L 24.835 10.5C 25.101204 10.501908 25.355659 10.609881 25.542 10.8L 29.249 14.5C 29.436549 14.687493 29.541943 14.941805 29.542 15.207L 29.542 18.5M 16.542 17.004L 13.542 20.004L 16.542 23.004M 19.542 17.004L 22.542 20.004L 19.542 23.004M 21.542 27.504C 21.542001 30.817709 24.228292 33.504001 27.542001 33.504001C 30.855709 33.504001 33.542001 30.817709 33.542001 27.504001C 33.542001 24.190292 30.855709 21.504001 27.542001 21.504001C 24.228292 21.504001 21.542001 24.190292 21.542001 27.504001ZM 25.667 26.045C 25.667001 25.009467 26.506467 24.170001 27.542001 24.170001C 28.577535 24.170001 29.417001 25.009467 29.417001 26.045001C 29.417001 27.080535 28.577535 27.920001 27.542001 27.920001L 27.542 28.92M 27.542 30.92C 27.680071 30.92 27.792 31.031929 27.792 31.17C 27.792 31.308071 27.680071 31.42 27.542 31.42C 27.403929 31.42 27.292 31.308071 27.292 31.17C 27.292 31.031929 27.403929 30.92 27.542 30.92"></path></g></g></g><g id="g-root-tx_sqlitese_1hgyxi51ol90ct-fill" data-item-order="0" transform="translate(2466.3359375, 368.990234375)"><g id="tx_sqlitese_1hgyxi51ol90ct-fill-merged" stroke="none" fill="#3cc583" fill-opacity="1"><g><text style="font: bold 12px Roboto, sans-serif; white-space: pre;" transform="translate(56.15625, 23.99609375)" font-weight="bold" font-size="12px" font-family="Roboto, sans-serif"><tspan x="-17.93" y="-0.5" dominant-baseline="ideographic">SQLite </tspan><tspan x="-44.16" y="13.5" dominant-baseline="ideographic">server_fridge.db</tspan></text></g></g></g><g id="g-root-tx_sqlitese_1hgyxi51ol90ct-stroke" data-item-order="0" transform="translate(2466.3359375, 368.990234375)"></g><g id="g-root-ic_sign_hznrj11okpa15-fill" data-item-order="0" transform="translate(1530.0078125, 399.9921875)"></g><g id="g-root-ic_sign_hznrj11okpa15-stroke" data-item-order="0" transform="translate(1530.0078125, 399.9921875)"><g id="ic_sign_hznrj11okpa15-stroke" fill="none" stroke-linecap="round" stroke-linejoin="round" stroke-miterlimit="4" stroke="#de8431" stroke-width="2" stroke-opacity="1"><g><path d="M 10.959 22C 10.959 28.097777 15.902224 33.041001 22.000001 33.041001C 28.097777 33.041001 33.041001 28.097777 33.041001 22.000001C 33.041001 15.902224 28.097777 10.959 22.000001 10.959C 15.902224 10.959 10.959 15.902224 10.959 22.000001M 17.32031 19.12988L 26.6797 19.12988M 17.32031 24.8701L 26.6797 24.8701"></path></g></g></g><g id="g-root-tx__1uljyfx1ol4r9c-fill" data-item-order="0" transform="translate(700.14453125, 147.9921875)"><g id="tx__1uljyfx1ol4r9c-fill-merged" stroke="none" fill="#de8431" fill-opacity="1"><g><text style="font: bold 12px Roboto, sans-serif; white-space: pre;" transform="translate(42, 17)" font-weight="bold" font-size="12px" font-family="Roboto, sans-serif"><tspan x="-30" y="6.5" dominant-baseline="ideographic">门状态变化</tspan></text></g></g></g><g id="g-root-tx__1uljyfx1ol4r9c-stroke" data-item-order="0" transform="translate(700.14453125, 147.9921875)"></g><g id="g-root-ic_2_vahmhp1oktiww-fill" data-item-order="0" transform="translate(293.7734680175781, 113.99609375)"></g><g id="g-root-ic_2_vahmhp1oktiww-stroke" data-item-order="0" transform="translate(293.7734680175781, 113.99609375)"><g id="ic_2_vahmhp1oktiww-stroke" fill="none" stroke-linecap="round" stroke-linejoin="round" stroke-miterlimit="4" stroke="#1eabda" stroke-width="2" stroke-opacity="1"><g><path d="M 31.207 14.5C 31.394549 14.687493 31.499943 14.941805 31.5 15.207L 31.5 32.5C 31.5 33.052285 31.052285 33.5 30.5 33.5L 13.5 33.5C 12.947715 33.5 12.5 33.052285 12.5 32.5L 12.5 11.5C 12.5 10.947715 12.947715 10.5 13.5 10.5L 26.793 10.5C 27.059204 10.501908 27.313659 10.609881 27.5 10.8ZM 16.5 19.004L 20 22.504L 16.5 26.004M 22.5 22.504L 27.5 22.504"></path></g></g></g><g id="g-root-tx_pythonfr_zjfztp1oks552-fill" data-item-order="0" transform="translate(886.1484375, 137)"><g id="tx_pythonfr_zjfztp1oks552-fill-merged" stroke="none" fill="#1eabda" fill-opacity="1"><g><text style="font: bold 12px Roboto, sans-serif; white-space: pre;" transform="translate(58.1953125, 30.9921875)" font-weight="bold" font-size="12px" font-family="Roboto, sans-serif"><tspan x="-19.08" y="-7.49" dominant-baseline="ideographic">Python </tspan><tspan x="-37.13" y="6.5" dominant-baseline="ideographic">fridge_mgr.py </tspan><tspan x="-46.2" y="20.49" dominant-baseline="ideographic">process_events()</tspan></text></g></g></g><g id="g-root-tx_pythonfr_zjfztp1oks552-stroke" data-item-order="0" transform="translate(886.1484375, 137)"></g><g id="g-root-ic_bann_1upxgd91okuwi7-fill" data-item-order="0" transform="translate(1709.5078125, 408.9921875)"></g><g id="g-root-ic_bann_1upxgd91okuwi7-stroke" data-item-order="0" transform="translate(1709.5078125, 408.9921875)"><g id="ic_bann_1upxgd91okuwi7-stroke" fill="none" stroke-linecap="round" stroke-linejoin="round" stroke-miterlimit="4" stroke="#1eabda" stroke-width="2" stroke-opacity="1"><g><path d="M 10.5 22C 10.5 28.351275 15.648726 33.5 22 33.5C 28.351275 33.5 33.5 28.351275 33.5 22C 33.5 15.648726 28.351275 10.5 22 10.5C 15.648726 10.5 10.5 15.648726 10.5 22ZM 13.868 13.868L 30.132 30.132"></path></g></g></g><g id="g-root-tx_diff2_8x5g651oks554-fill" data-item-order="0" transform="translate(1113.77734375, 153.9921875)"><g id="tx_diff2_8x5g651oks554-fill-merged" stroke="none" fill="#de8431" fill-opacity="1"><g><text style="font: bold 12px Roboto, sans-serif; white-space: pre;" transform="translate(34.23046875, 17)" font-weight="bold" font-size="12px" font-family="Roboto, sans-serif"><tspan x="-22.23" y="6.5" dominant-baseline="ideographic">diff &gt;= 2</tspan></text></g></g></g><g id="g-root-tx_diff2_8x5g651oks554-stroke" data-item-order="0" transform="translate(1113.77734375, 153.9921875)"></g><g id="g-root-tx_confirme_1430cgt1ol1wjk-fill" data-item-order="0" transform="translate(1293.20703125, 162.9921875)"><g id="tx_confirme_1430cgt1ol1wjk-fill-merged" stroke="none" fill="#1eabda" fill-opacity="1"><g><text style="font: bold 12px Roboto, sans-serif; white-space: pre;" transform="translate(39.55078125, 17)" font-weight="bold" font-size="12px" font-family="Roboto, sans-serif"><tspan x="-27.55" y="6.5" dominant-baseline="ideographic">confirmed</tspan></text></g></g></g><g id="g-root-tx_confirme_1430cgt1ol1wjk-stroke" data-item-order="0" transform="translate(1293.20703125, 162.9921875)"></g><g id="g-root-tx_json_1d155wd1oktjpj-fill" data-item-order="0" transform="translate(29.000030517578125, 180.98828125)"><g id="tx_json_1d155wd1oktjpj-fill-merged" stroke="none" fill="#484848" fill-opacity="1"><g><text style="font: 10.5px Roboto, sans-serif; white-space: pre;" transform="translate(64.734375, 22)" font-size="10.5px" font-family="Roboto, sans-serif"><tspan x="-52.73" y="0" dominant-baseline="ideographic">每帧输出 JSON 格式的</tspan><tspan x="-26.25" y="12" dominant-baseline="ideographic">检测结果。</tspan></text></g></g></g><g id="g-root-tx_json_1d155wd1oktjpj-stroke" data-item-order="0" transform="translate(29.000030517578125, 180.98828125)"></g><g id="g-root-tx_renamejs_qqasrh1okz6dn-fill" data-item-order="0" transform="translate(252.01174926757812, 177.98828125)"><g id="tx_renamejs_qqasrh1okz6dn-fill-merged" stroke="none" fill="#484848" fill-opacity="1"><g><text style="font: 10.5px Roboto, sans-serif; white-space: pre;" transform="translate(63.76171875, 28)" font-size="10.5px" font-family="Roboto, sans-serif"><tspan x="-51.76" y="-6" dominant-baseline="ideographic">原子 rename 操作将检</tspan><tspan x="-47.5" y="6" dominant-baseline="ideographic">测结果写入 JSON 文</tspan><tspan x="-10.51" y="18" dominant-baseline="ideographic">件。</tspan></text></g></g></g><g id="g-root-tx_renamejs_qqasrh1okz6dn-stroke" data-item-order="0" transform="translate(252.01174926757812, 177.98828125)"></g><g id="g-root-tx_baseline_1lpwy711ol4s21-fill" data-item-order="0" transform="translate(689.609375, 167.9921875)"><g id="tx_baseline_1lpwy711ol4s21-fill-merged" stroke="none" fill="#484848" fill-opacity="1"><g><text style="font: 10.5px Roboto, sans-serif; white-space: pre;" transform="translate(52.53515625, 28)" font-size="10.5px" font-family="Roboto, sans-serif"><tspan x="-26.26" y="-6" dominant-baseline="ideographic">开门时记录 </tspan><tspan x="-40.54" y="6" dominant-baseline="ideographic">baseline，关门时</tspan><tspan x="-28.02" y="18" dominant-baseline="ideographic">记录 after。</tspan></text></g></g></g><g id="g-root-tx_baseline_1lpwy711ol4s21-stroke" data-item-order="0" transform="translate(689.609375, 167.9921875)"></g><g id="g-root-tx_2_4hyf4t1oks2rl-fill" data-item-order="0" transform="translate(1094.0078125, 173.9921875)"><g id="tx_2_4hyf4t1oks2rl-fill-merged" stroke="none" fill="#484848" fill-opacity="1"><g><text style="font: 10.5px Roboto, sans-serif; white-space: pre;" transform="translate(54, 22)" font-size="10.5px" font-family="Roboto, sans-serif"><tspan x="-42" y="0" dominant-baseline="ideographic">判断检测数量差异</tspan><tspan x="-39.7" y="12" dominant-baseline="ideographic">是否大于等于2。</tspan></text></g></g></g><g id="g-root-tx_2_4hyf4t1oks2rl-stroke" data-item-order="0" transform="translate(1094.0078125, 173.9921875)"></g><g id="g-root-tx_yes_7r6sd1okwbnv-fill" data-item-order="0" transform="translate(1209.92578125, 172.9921875)"><g id="tx_yes_7r6sd1okwbnv-fill-merged" stroke="none" fill="#1eabda" fill-opacity="1"><g><text style="font: 12px Roboto, sans-serif; white-space: pre;" transform="translate(21.08203125, 17)" font-size="12px" font-family="Roboto, sans-serif"><tspan x="-9.08" y="6.5" dominant-baseline="ideographic">yes</tspan></text></g></g></g><g id="g-root-tx_yes_7r6sd1okwbnv-stroke" data-item-order="0" transform="translate(1209.92578125, 172.9921875)"></g><g id="g-root-tx__v7dc7x1ol1xc9-fill" data-item-order="0" transform="translate(1284.0078125, 182.9921875)"><g id="tx__v7dc7x1ol1xc9-fill-merged" stroke="none" fill="#484848" fill-opacity="1"><g><text style="font: 10.5px Roboto, sans-serif; white-space: pre;" transform="translate(48.75, 16)" font-size="10.5px" font-family="Roboto, sans-serif"><tspan x="-36.75" y="6" dominant-baseline="ideographic">库存自动更新。</tspan></text></g></g></g><g id="g-root-tx__v7dc7x1ol1xc9-stroke" data-item-order="0" transform="translate(1284.0078125, 182.9921875)"></g><g id="g-root-tx_02json_4g2wpp1ol4pvz-fill" data-item-order="0" transform="translate(473.078125, 184.984375)"><g id="tx_02json_4g2wpp1ol4pvz-fill-merged" stroke="none" fill="#484848" fill-opacity="1"><g><text style="font: 10.5px Roboto, sans-serif; white-space: pre;" transform="translate(67.265625, 28)" font-size="10.5px" font-family="Roboto, sans-serif"><tspan x="-55.27" y="-6" dominant-baseline="ideographic">每0.2秒调用一次，解析 </tspan><tspan x="-50.86" y="6" dominant-baseline="ideographic">JSON，按名称聚合计</tspan><tspan x="-47.98" y="18" dominant-baseline="ideographic">数，返回计数字典。</tspan></text></g></g></g><g id="g-root-tx_02json_4g2wpp1ol4pvz-stroke" data-item-order="0" transform="translate(473.078125, 184.984375)"></g><g id="g-root-tx_diffafte_qofgnx1oks2rz-fill" data-item-order="0" transform="translate(876.6796875, 184.984375)"><g id="tx_diffafte_qofgnx1oks2rz-fill-merged" stroke="none" fill="#484848" fill-opacity="1"><g><text style="font: 10.5px Roboto, sans-serif; white-space: pre;" transform="translate(67.6640625, 28)" font-size="10.5px" font-family="Roboto, sans-serif"><tspan x="-55.66" y="-6" dominant-baseline="ideographic">计算 diff = after[name] - </tspan><tspan x="-52.05" y="6" dominant-baseline="ideographic">baseline[name]，根据 </tspan><tspan x="-52.03" y="18" dominant-baseline="ideographic">diff 值确定事件类型。</tspan></text></g></g></g><g id="g-root-tx_diffafte_qofgnx1oks2rz-stroke" data-item-order="0" transform="translate(876.6796875, 184.984375)"></g><g id="g-root-tx_2_1cynj191okwb2k-fill" data-item-order="0" transform="translate(2062.1484375, 389.486328125)"><g id="tx_2_1cynj191okwb2k-fill-merged" stroke="none" fill="#484848" fill-opacity="1"><g><text style="font: 10.5px Roboto, sans-serif; white-space: pre;" transform="translate(62.203125, 22)" font-size="10.5px" font-family="Roboto, sans-serif"><tspan x="-50.2" y="0" dominant-baseline="ideographic">每2秒将数据同步到服</tspan><tspan x="-15.75" y="12" dominant-baseline="ideographic">务器。</tspan></text></g></g></g><g id="g-root-tx_2_1cynj191okwb2k-stroke" data-item-order="0" transform="translate(2062.1484375, 389.486328125)"></g><g id="g-root-tx_tmpfridg_141rb4t1okz4sq-fill" data-item-order="0" transform="translate(228.46878051757812, 143.99609375)"><g id="tx_tmpfridg_141rb4t1okz4sq-fill-merged" stroke="none" fill="#1eabda" fill-opacity="1"><g><text style="font: bold 12px Roboto, sans-serif; white-space: pre;" transform="translate(87.3046875, 23.99609375)" font-weight="bold" font-size="12px" font-family="Roboto, sans-serif"><tspan x="-12" y="-0.5" dominant-baseline="ideographic">写入 </tspan><tspan x="-75.3" y="13.5" dominant-baseline="ideographic">/tmp/fridge_detections.json</tspan></text></g></g></g><g id="g-root-tx_tmpfridg_141rb4t1okz4sq-stroke" data-item-order="0" transform="translate(228.46878051757812, 143.99609375)"></g><g id="g-root-tx_eventsin_1lrsmxp1oknwun-fill" data-item-order="0" transform="translate(1880, 402.982421875)"><g id="tx_eventsin_1lrsmxp1oknwun-fill-merged" stroke="none" fill="#484848" fill-opacity="1"><g><text style="font: 10.5px Roboto, sans-serif; white-space: pre;" transform="translate(55.640625, 22)" font-size="10.5px" font-family="Roboto, sans-serif"><tspan x="-33.73" y="0" dominant-baseline="ideographic">存储 events 和 </tspan><tspan x="-43.64" y="12" dominant-baseline="ideographic">inventory 等数据。</tspan></text></g></g></g><g id="g-root-tx_eventsin_1lrsmxp1oknwun-stroke" data-item-order="0" transform="translate(1880, 402.982421875)"></g><g id="g-root-ic_shak_mgq7tp1okz5l8-fill" data-item-order="0" transform="translate(1726.5703125, 216.00390625)"></g><g id="g-root-ic_shak_mgq7tp1okz5l8-stroke" data-item-order="0" transform="translate(1726.5703125, 216.00390625)"><g id="ic_shak_mgq7tp1okz5l8-stroke" fill="none" stroke-linecap="round" stroke-linejoin="round" stroke-miterlimit="4" stroke="#1eabda" stroke-width="2" stroke-opacity="1"><g><path d="M 21.817 33.1054C 23.0664 33.1054 24.0792 32.0926 24.0792 30.8433C 24.0792 29.5939 23.0664 28.5811 21.817 28.5811C 20.5677 28.5811 19.5549 29.5939 19.5549 30.8433C 19.5549 32.0926 20.5677 33.1054 21.817 33.1054ZM 26.3413 33.1054C 27.5907 33.1054 28.6035 32.0926 28.6035 30.8433C 28.6035 29.5939 27.5907 28.5811 26.3413 28.5811C 25.092 28.5811 24.0792 29.5939 24.0792 30.8433C 24.0792 32.0926 25.092 33.1054 26.3413 33.1054ZM 26.1611 28.5882C 26.3373 28.2663 26.4375 27.8967 26.4375 27.5038C 26.4375 26.2545 25.4247 25.2417 24.1753 25.2417C 22.926 25.2417 21.9132 26.2545 21.9132 27.5038C 21.9132 27.9073 22.0188 28.2861 22.204 28.6141C 22.8844 28.7314 23.4609 29.1526 23.7884 29.733C 23.9142 29.7547 24.0434 29.7659 24.1753 29.7659C 24.236 29.7659 24.2961 29.7636 24.3556 29.7589C 24.7124 29.1068 25.3811 28.6497 26.1611 28.5882ZM 30.8656 33.1054C 32.1149 33.1054 33.1277 32.0926 33.1277 30.8433C 33.1277 29.5939 32.1149 28.5811 30.8656 28.5811C 29.6162 28.5811 28.6035 29.5939 28.6035 30.8433C 28.6035 32.0926 29.6162 33.1054 30.8656 33.1054ZM 30.6854 28.5882C 30.8616 28.2663 30.9617 27.8967 30.9617 27.5038C 30.9617 26.2545 29.949 25.2417 28.6996 25.2417C 27.4503 25.2417 26.4375 26.2545 26.4375 27.5038C 26.4375 27.9073 26.5431 28.2861 26.7282 28.6141C 27.4087 28.7314 27.9851 29.1526 28.3127 29.733C 28.4384 29.7547 28.5677 29.7659 28.6996 29.7659C 28.7603 29.7659 28.8204 29.7636 28.8799 29.7589C 29.2367 29.1068 29.9054 28.6497 30.6854 28.5882ZM 10 10M 24.4844 22.8062L 23.5538 17.0921L 13.56815 19.29326L 16.25558 28.9106C 16.38905 29.3883 16.68885 29.7769 17.07612 30.029M 10 10M 13.50429 18.57117L 13.56815 19.29327L 23.5538 17.09211L 23.3081 16.41008C 22.4565 14.04557 19.98197 12.68069 17.52767 13.2217L 17.40853 13.24796C 14.95423 13.78897 13.28291 16.06772 13.50429 18.57117ZM 10 10M 15.81794 13.9004L 15.59591 12.30421C 15.52402 11.78741 15.86156 11.30219 16.37111 11.18987L 17.6037 10.91817C 18.11324 10.80585 18.6235 11.10418 18.77556 11.60331L 19.24521 13.14495C 18.68592 13.07253 18.10622 13.09415 17.52765 13.22168L 17.40851 13.24794C 16.82997 13.37547 16.29493 13.59957 15.81794 13.9004ZM 27.8152 15.08781C 27.8704 14.36228 27.5508 12.72456 25.8302 11.97798M 11.63228 29.55C 11.55991 30.274 11.84078 31.9189 13.54321 32.7059M 25.5703 15.27273C 25.6007 14.99909 25.4971 14.37554 24.8404 14.07043M 13.88088 29.4182C 13.84409 29.6911 13.93284 30.3169 14.58217 30.6374"></path></g></g></g><g id="g-root-tx_no_1ut1qn11okwc90-fill" data-item-order="0" transform="translate(1110.26953125, 242.9921875)"><g id="tx_no_1ut1qn11okwc90-fill-merged" stroke="none" fill="#1eabda" fill-opacity="1"><g><text style="font: 12px Roboto, sans-serif; white-space: pre;" transform="translate(18.73828125, 17)" font-size="12px" font-family="Roboto, sans-serif"><tspan x="-6.74" y="6.5" dominant-baseline="ideographic">no</tspan></text></g></g></g><g id="g-root-tx_no_1ut1qn11okwc90-stroke" data-item-order="0" transform="translate(1110.26953125, 242.9921875)"></g><g id="g-root-ic_stan_dgpst91ol1wjo-fill" data-item-order="0" transform="translate(1328.0078125, 239.9921875)"></g><g id="g-root-ic_stan_dgpst91ol1wjo-stroke" data-item-order="0" transform="translate(1328.0078125, 239.9921875)"><g id="ic_stan_dgpst91ol1wjo-stroke" fill="none" stroke-linecap="round" stroke-linejoin="round" stroke-miterlimit="4" stroke="#de8431" stroke-width="2" stroke-opacity="1"><g><path d="M 13.25 16.05005L 13.25 23.4501M 13.25 27.95C 12.97386 27.95 12.75 27.7261 12.75 27.45C 12.75 27.1738 12.97386 26.95 13.25 26.95M 13.24999 27.95C 13.52613 27.95 13.74999 27.7261 13.74999 27.45C 13.74999 27.1738 13.52613 26.95 13.24999 26.95M 30.75 16.05005L 30.75 23.4501M 30.75 27.95C 30.4739 27.95 30.25 27.7261 30.25 27.45C 30.25 27.1738 30.4739 26.95 30.75 26.95M 30.75 27.95C 31.0261 27.95 31.25 27.7261 31.25 27.45C 31.25 27.1738 31.0261 26.95 30.75 26.95M 18.75 20.75L 25.35 20.75M 18.75 24.35L 25.35 24.35"></path></g></g></g><g id="g-root-tx_cyolov5m_1hgyo0t1oktixa-fill" data-item-order="0" transform="translate(33.335968017578125, 146.99609375)"><g id="tx_cyolov5m_1hgyo0t1oktixa-fill-merged" stroke="none" fill="#3cc583" fill-opacity="1"><g><text style="font: bold 12px Roboto, sans-serif; white-space: pre;" transform="translate(60.3984375, 23.99609375)" font-weight="bold" font-size="12px" font-family="Roboto, sans-serif"><tspan x="-48.4" y="-0.5" dominant-baseline="ideographic">C++ YOLOv5 推理 </tspan><tspan x="-27.05" y="13.5" dominant-baseline="ideographic">(main.cc)</tspan></text></g></g></g><g id="g-root-tx_cyolov5m_1hgyo0t1oktixa-stroke" data-item-order="0" transform="translate(33.335968017578125, 146.99609375)"></g><g id="g-root-ic_1_18fph5p1ol7le1-fill" data-item-order="0" transform="translate(1528.5078125, 248.9921875)"></g><g id="g-root-ic_1_18fph5p1ol7le1-stroke" data-item-order="0" transform="translate(1528.5078125, 248.9921875)"><g id="ic_1_18fph5p1ol7le1-stroke" fill="none" stroke-linecap="round" stroke-linejoin="round" stroke-miterlimit="4" stroke="#1eabda" stroke-width="2" stroke-opacity="1"><g><path d="M 22 25.375L 22 25.375M 22 23.125L 22 20.125M 22.838 17.125C 22.672818 16.815675 22.350667 16.6225 22 16.6225C 21.649333 16.6225 21.327183 16.815675 21.162 17.125L 16.106 26.763C 15.954064 27.051732 15.96585 27.399226 16.137 27.677C 16.31023 27.956048 16.615556 28.125547 16.944 28.125001L 27.056 28.125C 27.384445 28.125547 27.689771 27.956048 27.863001 27.677001C 28.03415 27.399226 28.045936 27.051732 27.894 26.763ZM 30.5 33.5C 31.052285 33.5 31.5 33.052285 31.5 32.5L 31.5 16.475C 31.5 13.175099 28.824901 10.5 25.525 10.5L 13.5 10.5C 12.947715 10.5 12.5 10.947715 12.5 11.5L 12.5 32.5C 12.5 33.052285 12.947715 33.5 13.5 33.5ZM 26.5 10.58L 26.5 14.5C 26.5 15.052285 26.947715 15.5 27.5 15.5L 31.42 15.5"></path></g></g></g><g id="g-root-tx_diff1_hvwtul1ol1yx6-fill" data-item-order="0" transform="translate(1315.4375, 269.9921875)"><g id="tx_diff1_hvwtul1ol1yx6-fill-merged" stroke="none" fill="#de8431" fill-opacity="1"><g><text style="font: bold 12px Roboto, sans-serif; white-space: pre;" transform="translate(34.5703125, 17)" font-weight="bold" font-size="12px" font-family="Roboto, sans-serif"><tspan x="-22.57" y="6.5" dominant-baseline="ideographic">diff == 1</tspan></text></g></g></g><g id="g-root-tx_diff1_hvwtul1ol1yx6-stroke" data-item-order="0" transform="translate(1315.4375, 269.9921875)"></g><g id="g-root-tx_postjson_v4vm711ol4rgj-fill" data-item-order="0" transform="translate(2256.5546875, 390.482421875)"><g id="tx_postjson_v4vm711ol4rgj-fill-merged" stroke="none" fill="#484848" fill-opacity="1"><g><text style="font: 10.5px Roboto, sans-serif; white-space: pre;" transform="translate(65.71875, 28)" font-size="10.5px" font-family="Roboto, sans-serif"><tspan x="-53.72" y="-6" dominant-baseline="ideographic">接收 POST 请求，处理 </tspan><tspan x="-42.21" y="6" dominant-baseline="ideographic">JSON 数据，更新 </tspan><tspan x="-28.45" y="18" dominant-baseline="ideographic">events 表。</tspan></text></g></g></g><g id="g-root-tx_postjson_v4vm711ol4rgj-stroke" data-item-order="0" transform="translate(2256.5546875, 390.482421875)"></g><g id="g-root-tx__1d1rwgt1ol8xza-fill" data-item-order="0" transform="translate(2457.9921875, 402.982421875)"><g id="tx__1d1rwgt1ol8xza-fill-merged" stroke="none" fill="#484848" fill-opacity="1"><g><text style="font: 10.5px Roboto, sans-serif; white-space: pre;" transform="translate(64.5, 22)" font-size="10.5px" font-family="Roboto, sans-serif"><tspan x="-52.5" y="0" dominant-baseline="ideographic">存储事件和库存信息的</tspan><tspan x="-21" y="12" dominant-baseline="ideographic">数据库。</tspan></text></g></g></g><g id="g-root-tx__1d1rwgt1ol8xza-stroke" data-item-order="0" transform="translate(2457.9921875, 402.982421875)"></g><g id="g-root-tx_diff0_vahst91okpblz-fill" data-item-order="0" transform="translate(1517.4375, 429.9921875)"><g id="tx_diff0_vahst91okpblz-fill-merged" stroke="none" fill="#de8431" fill-opacity="1"><g><text style="font: bold 12px Roboto, sans-serif; white-space: pre;" transform="translate(34.5703125, 17)" font-weight="bold" font-size="12px" font-family="Roboto, sans-serif"><tspan x="-22.57" y="6.5" dominant-baseline="ideographic">diff == 0</tspan></text></g></g></g><g id="g-root-tx_diff0_vahst91okpblz-stroke" data-item-order="0" transform="translate(1517.4375, 429.9921875)"></g><g id="g-root-tx_evtaddac_v7zwgt1ol4s8w-fill" data-item-order="0" transform="translate(1693.87890625, 246.00390625)"><g id="tx_evtaddac_v7zwgt1ol4s8w-fill-merged" stroke="none" fill="#1eabda" fill-opacity="1"><g><text style="font: bold 12px Roboto, sans-serif; white-space: pre;" transform="translate(54.69140625, 37.98828125)" font-weight="bold" font-size="12px" font-family="Roboto, sans-serif"><tspan x="-42.69" y="-14.49" dominant-baseline="ideographic">evt_add(action, </tspan><tspan x="-33.53" y="-0.5" dominant-baseline="ideographic">food, count, </tspan><tspan x="-40.07" y="13.5" dominant-baseline="ideographic">review_status, </tspan><tspan x="-33.5" y="27.49" dominant-baseline="ideographic">confidence)</tspan></text></g></g></g><g id="g-root-tx_evtaddac_v7zwgt1ol4s8w-stroke" data-item-order="0" transform="translate(1693.87890625, 246.00390625)"></g><g id="g-root-ic_plus_9mfq51ol7ldu-fill" data-item-order="0" transform="translate(71.73440551757812, 116.99609375)"></g><g id="g-root-ic_plus_9mfq51ol7ldu-stroke" data-item-order="0" transform="translate(71.73440551757812, 116.99609375)"><g id="ic_plus_9mfq51ol7ldu-stroke" fill="none" stroke-linecap="round" stroke-linejoin="round" stroke-miterlimit="4" stroke="#3cc583" stroke-width="2" stroke-opacity="1"><g><path d="M 30.5 33.5C 31.052285 33.5 31.5 33.052285 31.5 32.5L 31.5 16.478C 31.501657 13.176927 28.826073 10.5 25.525 10.5L 13.5 10.5C 12.947715 10.5 12.5 10.947715 12.5 11.5L 12.5 32.5C 12.5 33.052285 12.947715 33.5 13.5 33.5ZM 26.5 10.584L 26.5 14.5C 26.5 15.052285 26.947715 15.5 27.5 15.5L 31.42 15.5M 21.5 23.504L 21.5 27.504M 23.5 25.504L 19.5 25.504M 27.5 23.504L 27.5 27.504M 29.5 25.504L 25.5 25.504M 17.5 28.5C 15.843146 28.5 14.5 27.156855 14.5 25.5C 14.5 23.843146 15.843146 22.5 17.5 22.5"></path></g></g></g><g id="g-root-tx_1_hvwtul1ol1yx7-fill" data-item-order="0" transform="translate(1296.0078125, 289.9921875)"><g id="tx_1_hvwtul1ol1yx7-fill-merged" stroke="none" fill="#484848" fill-opacity="1"><g><text style="font: 10.5px Roboto, sans-serif; white-space: pre;" transform="translate(54, 22)" font-size="10.5px" font-family="Roboto, sans-serif"><tspan x="-42" y="0" dominant-baseline="ideographic">判断检测数量差异</tspan><tspan x="-29.2" y="12" dominant-baseline="ideographic">是否等于1。</tspan></text></g></g></g><g id="g-root-tx_1_hvwtul1ol1yx7-stroke" data-item-order="0" transform="translate(1296.0078125, 289.9921875)"></g><g id="g-root-tx_yes_1lr5zj11ol7jt3-fill" data-item-order="0" transform="translate(1411.92578125, 288.9921875)"><g id="tx_yes_1lr5zj11ol7jt3-fill-merged" stroke="none" fill="#1eabda" fill-opacity="1"><g><text style="font: 12px Roboto, sans-serif; white-space: pre;" transform="translate(21.08203125, 17)" font-size="12px" font-family="Roboto, sans-serif"><tspan x="-9.08" y="6.5" dominant-baseline="ideographic">yes</tspan></text></g></g></g><g id="g-root-tx_yes_1lr5zj11ol7jt3-stroke" data-item-order="0" transform="translate(1411.92578125, 288.9921875)"></g><g id="g-root-tx_needsrev_18lyb6l1okpa11-fill" data-item-order="0" transform="translate(1501.91015625, 278.9921875)"><g id="tx_needsrev_18lyb6l1okpa11-fill-merged" stroke="none" fill="#1eabda" fill-opacity="1"><g><text style="font: bold 12px Roboto, sans-serif; white-space: pre;" transform="translate(48.59765625, 17)" font-weight="bold" font-size="12px" font-family="Roboto, sans-serif"><tspan x="-36.6" y="6.5" dominant-baseline="ideographic">needs_review</tspan></text></g></g></g><g id="g-root-tx_needsrev_18lyb6l1okpa11-stroke" data-item-order="0" transform="translate(1501.91015625, 278.9921875)"></g><g id="g-root-tx__zqbaxp1okpatq-fill" data-item-order="0" transform="translate(1486.0078125, 298.9921875)"><g id="tx__zqbaxp1okpatq-fill-merged" stroke="none" fill="#484848" fill-opacity="1"><g><text style="font: 10.5px Roboto, sans-serif; white-space: pre;" transform="translate(64.5, 16)" font-size="10.5px" font-family="Roboto, sans-serif"><tspan x="-52.5" y="6" dominant-baseline="ideographic">事件记录但库存不变。</tspan></text></g></g></g><g id="g-root-tx__zqbaxp1okpatq-stroke" data-item-order="0" transform="translate(1486.0078125, 298.9921875)"></g><g id="g-root-tx_reviewst_mczdb11ol4pvt-fill" data-item-order="0" transform="translate(1688.0078125, 307.98046875)"><g id="tx_reviewst_mczdb11ol4pvt-fill-merged" stroke="none" fill="#484848" fill-opacity="1"><g><text style="font: 10.5px Roboto, sans-serif; white-space: pre;" transform="translate(60.5625, 28)" font-size="10.5px" font-family="Roboto, sans-serif"><tspan x="-48.56" y="-6" dominant-baseline="ideographic">记录事件，包括新增 </tspan><tspan x="-39.87" y="6" dominant-baseline="ideographic">review_status 和 </tspan><tspan x="-32.3" y="18" dominant-baseline="ideographic">confidence。</tspan></text></g></g></g><g id="g-root-tx_reviewst_mczdb11ol4pvt-stroke" data-item-order="0" transform="translate(1688.0078125, 307.98046875)"></g><g id="g-root-ic_1_1lxeqe51okwd1p-fill" data-item-order="0" transform="translate(1310.7578125, 132.9921875)"></g><g id="g-root-ic_1_1lxeqe51okwd1p-stroke" data-item-order="0" transform="translate(1310.7578125, 132.9921875)"><g id="ic_1_1lxeqe51okwd1p-stroke" fill="none" stroke-linecap="round" stroke-linejoin="round" stroke-miterlimit="4" stroke="#1eabda" stroke-width="2" stroke-opacity="1"><g><path d="M 28 17L 21.62 25.66C 21.457729 25.880889 21.211906 26.025491 20.94 26.06C 20.671893 26.094233 20.401347 26.01848 20.19 25.85L 16 22.5M 10.5 22C 10.5 28.351275 15.648726 33.5 22 33.5C 28.351275 33.5 33.5 28.351275 33.5 22C 33.5 15.648726 28.351275 10.5 22 10.5C 15.648726 10.5 10.5 15.648726 10.5 22"></path></g></g></g><g id="g-root-ic_spre_1unfgv11oks3d6-fill" data-item-order="0" transform="translate(1126.0078125, 123.9921875)"></g><g id="g-root-ic_spre_1unfgv11oks3d6-stroke" data-item-order="0" transform="translate(1126.0078125, 123.9921875)"><g id="ic_spre_1unfgv11oks3d6-stroke" fill="none" stroke-linecap="round" stroke-linejoin="round" stroke-miterlimit="4" stroke="#de8431" stroke-width="2" stroke-opacity="1"><g><path d="M 33.2 19.09998L 31 19.09998M 26 19.09998L 26 15.09998C 26 13.99998 26.9 13.09998 28 13.09998L 33.2 13.09998M 26 19.09998L 26 28.9C 26 30 26.9 30.9 28 30.9L 31 30.9M 26 19.09998L 31 19.09998M 31 19.09998L 31 30.9M 31 30.9L 33.2 30.9M 26 25.1L 33.2 25.1M 13 19.09998L 13 30.9M 13 30.9L 16 30.9C 17.1 30.9 18 30 18 28.9L 18 19.09998M 13 30.9L 10.800049 30.9M 18 19.09998L 10.800049 19.09998M 18 19.09998L 18.00005 15.09998C 18.00005 13.99998 17.10005 13.09998 16.00005 13.09998L 10.800049 13.09998M 18 25.1L 10.800049 25.1M 10 10M 20.9999 14.6001L 23.4999 17.1001L 20.9999 19.6001M 23.5 17.1001L 18 17.1001M 10 10M 20.9999 24.3999L 23.4999 26.8999L 20.9999 29.3999M 23.5 26.8999L 18 26.8999"></path></g></g></g><g id="g-root-ic_fedo_18iu0wt1okwbut-fill" data-item-order="0" transform="translate(2300.2734375, 326.490234375)"></g><g id="g-root-ic_fedo_18iu0wt1okwbut-stroke" data-item-order="0" transform="translate(2300.2734375, 326.490234375)"><g id="ic_fedo_18iu0wt1okwbut-stroke" fill="none" stroke-linecap="round" stroke-linejoin="round" stroke-miterlimit="4" stroke="#1eabda" stroke-width="2" stroke-opacity="1"><g><path d="M 33.5 22C 33.500001 28.351275 28.351275 33.500001 22 33.5L 12.5 33.5C 11.395431 33.5 10.5 32.604569 10.5 31.5L 10.5 22C 10.5 15.648726 15.648726 10.5 22 10.5C 28.351275 10.5 33.5 15.648726 33.5 22ZM 28 19C 28 17.343146 26.656855 16 25 16C 23.343146 16 22 17.343146 22 19L 22 25.75C 22.000001 27.821069 20.321068 29.500001 18.25 29.500001C 16.455075 29.500001 15 28.044926 15 26.250001C 15 24.455075 16.455075 23.000001 18.25 23.000001L 19.5 23M 22 23L 25 23"></path></g></g></g><g id="g-root-ic_refr_1d0iot91ol8yku-fill" data-item-order="0" transform="translate(922.34375, 107)"></g><g id="g-root-ic_refr_1d0iot91ol8yku-stroke" data-item-order="0" transform="translate(922.34375, 107)"><g id="ic_refr_1d0iot91ol8yku-stroke" fill="none" stroke-linecap="round" stroke-linejoin="round" stroke-miterlimit="4" stroke="#1eabda" stroke-width="2" stroke-opacity="1"><g><path d="M 12.5 13L 22 13C 22 13 24 13 24 15L 24 30.5C 24 30.5 24 32.5 22 32.5L 12.5 32.5C 12.5 32.5 10.5 32.5 10.5 30.5L 10.5 15C 10.5 15 10.5 13 12.5 13M 13.5 33.5L 13.5 32.5M 21 33.5L 21 32.5M 10.5 20L 24 20M 13.5 15L 13.5 18M 13.5 22.5L 13.5 28M 27.7 17.786C 27.677495 16.977572 27.027429 16.327506 26.219001 16.305M 30.6 17.843C 30.532485 15.419372 28.583627 13.470514 26.159999 13.403M 30.6 17.843C 30.532485 15.419372 28.583627 13.470514 26.159999 13.403M 33.5 17.9C 33.386484 13.861047 30.138953 10.613516 26.1 10.5M 33.5 17.9C 33.386484 13.861047 30.138953 10.613516 26.1 10.5"></path></g></g></g><g id="g-root-tx_0_quoaot1okpce8-fill" data-item-order="0" transform="translate(1498.0078125, 449.9921875)"><g id="tx_0_quoaot1okpce8-fill-merged" stroke="none" fill="#484848" fill-opacity="1"><g><text style="font: 10.5px Roboto, sans-serif; white-space: pre;" transform="translate(54, 22)" font-size="10.5px" font-family="Roboto, sans-serif"><tspan x="-42" y="0" dominant-baseline="ideographic">判断检测数量差异</tspan><tspan x="-29.2" y="12" dominant-baseline="ideographic">是否等于0。</tspan></text></g></g></g><g id="g-root-tx_0_quoaot1okpce8-stroke" data-item-order="0" transform="translate(1498.0078125, 449.9921875)"></g><g id="g-root-ic_keys_91iuxp1ol4rgq-fill" data-item-order="0" transform="translate(1913.640625, 338.990234375)"></g><g id="g-root-ic_keys_91iuxp1ol4rgq-stroke" data-item-order="0" transform="translate(1913.640625, 338.990234375)"><g id="ic_keys_91iuxp1ol4rgq-stroke" fill="none" stroke-linecap="round" stroke-linejoin="round" stroke-miterlimit="4" stroke="#3cc583" stroke-width="2" stroke-opacity="1"><g><path d="M 18.55002 17.55C 22.8578 17.55 26.35 16.02777 26.35 14.15C 26.35 12.27223 22.8578 10.75 18.55002 10.75C 14.2422 10.75 10.75 12.27223 10.75 14.15C 10.75 16.02777 14.2422 17.55 18.55002 17.55ZM 10.75 14.15002L 10.75 19.35002C 10.75 21.25 14.25002 22.75 18.55002 22.75C 22.85 22.75 26.35 21.25 26.35 19.35002L 26.35 14.15002M 10.75 19.25L 10.75 24.45C 10.75 26.35 14.25002 27.85 18.55002 27.85L 19.55002 27.85M 10 10M 33.25 18.75L 28.95 21.35M 10 10M 33.25 21.35L 28.95 18.75M 31.05 17.25L 31.05 22.75M 28.95 26.0782C 28.6608 25.2599 27.8803 24.6736 26.9629 24.6736L 25.5583 24.6736C 24.3946 24.6736 23.4513 25.6169 23.4513 26.7806L 23.4513 30.9945C 23.4513 32.1582 24.3946 33.1015 25.5583 33.1015L 26.9629 33.1015C 27.8803 33.1015 28.6608 32.5152 28.95 31.6968"></path></g></g></g><g id="g-root-ic_open_18f2wwt1ol4qh6-fill" data-item-order="0" transform="translate(720.14453125, 117.9921875)"></g><g id="g-root-ic_open_18f2wwt1ol4qh6-stroke" data-item-order="0" transform="translate(720.14453125, 117.9921875)"><g id="ic_open_18f2wwt1ol4qh6-stroke" fill="none" stroke-linecap="round" stroke-linejoin="round" stroke-miterlimit="4" stroke="#de8431" stroke-width="2" stroke-opacity="1"><g><path d="M 21.5 16L 21.5 22L 25.5 23.5L 25.5 14.5L 21.5 16ZM 25.5 15.5L 27.5 15.5L 27.5 22.5L 25.5 22.5ZM 25.5 18.5L 24.5 18.5M 33.5 18.5L 24.5 10.5L 15.5 18.5M 30.5 15.834L 30.5 24.5C 30.5 25.052285 30.052285 25.5 29.5 25.5L 19.5 25.5C 18.947715 25.5 18.5 25.052285 18.5 24.5L 18.5 15.834M 15.5 26.5L 15.5 32.5C 15.5 32.5 15.5 33.5 14.5 33.5L 11.5 33.5C 11.5 33.5 10.5 33.5 10.5 32.5L 10.5 26.5C 10.5 26.5 10.5 25.5 11.5 25.5L 14.5 25.5C 14.5 25.5 15.5 25.5 15.5 26.5M 14.338 23.014C 13.577369 22.329366 12.422631 22.329366 11.662 23.014M 15.5 21.378C 14.038669 20.207999 11.961331 20.207999 10.5 21.378M 13 31C 13.138071 31 13.25 31.111929 13.25 31.25C 13.25 31.388071 13.138071 31.5 13 31.5C 12.861929 31.5 12.75 31.388071 12.75 31.25C 12.75 31.111929 12.861929 31 13 31"></path></g></g></g><g id="g-root-ic_http_1hbz4t91oknxmw-fill" data-item-order="0" transform="translate(2102.3515625, 339.486328125)"></g><g id="g-root-ic_http_1hbz4t91oknxmw-stroke" data-item-order="0" transform="translate(2102.3515625, 339.486328125)"><g id="ic_http_1hbz4t91oknxmw-stroke" fill="none" stroke-linecap="round" stroke-linejoin="round" stroke-miterlimit="4" stroke="#1eabda" stroke-width="2" stroke-opacity="1"><g><path d="M 12.5 13L 31.5 13C 31.5 13 33.5 13 33.5 15L 33.5 29C 33.5 29 33.5 31 31.5 31L 12.5 31C 12.5 31 10.5 31 10.5 29L 10.5 15C 10.5 15 10.5 13 12.5 13M 10.5 18L 33.5 18M 14 15.25C 14.138071 15.25 14.25 15.361929 14.25 15.5C 14.25 15.638071 14.138071 15.75 14 15.75C 13.861929 15.75 13.75 15.638071 13.75 15.5C 13.75 15.361929 13.861929 15.25 14 15.25M 17 15.25C 17.138071 15.25 17.25 15.361929 17.25 15.5C 17.25 15.638071 17.138071 15.75 17 15.75C 16.861929 15.75 16.75 15.638071 16.75 15.5C 16.75 15.361929 16.861929 15.25 17 15.25M 20 15.25C 20.138071 15.25 20.25 15.361929 20.25 15.5C 20.25 15.638071 20.138071 15.75 20 15.75C 19.861929 15.75 19.75 15.638071 19.75 15.5C 19.75 15.361929 19.861929 15.25 20 15.25M 19.5 27L 19.5 22M 18.5 22L 20.5 22M 23.5 27L 23.5 22M 22.5 22L 24.5 22M 14.5 27L 14.5 22M 16.5 27L 16.5 22M 14.5 25L 16.5 25M 26.5 27L 26.5 22M 26.5 22L 27 22C 27.828428 22 28.500001 22.671573 28.500001 23.5C 28.500001 24.328428 27.828428 25 27.000001 25L 26.5 25"></path></g></g></g><g id="g-root-ic_data_hu1kwt1ol4pvo-fill" data-item-order="0" transform="translate(2500.4921875, 338.990234375)"></g><g id="g-root-ic_data_hu1kwt1ol4pvo-stroke" data-item-order="0" transform="translate(2500.4921875, 338.990234375)"><g id="ic_data_hu1kwt1ol4pvo-stroke" fill="none" stroke-linecap="round" stroke-linejoin="round" stroke-miterlimit="4" stroke="#3cc583" stroke-width="2" stroke-opacity="1"><g><path d="M 31.207 14.5C 31.394549 14.687493 31.499943 14.941805 31.5 15.207L 31.5 32.5C 31.5 33.052285 31.052285 33.5 30.5 33.5L 13.5 33.5C 12.947715 33.5 12.5 33.052285 12.5 32.5L 12.5 11.5C 12.5 10.947715 12.947715 10.5 13.5 10.5L 26.793 10.5C 27.059204 10.501908 27.313659 10.609881 27.5 10.8ZM 27.5 19.565C 27.5 20.722 25.011 21.694 21.987 21.694C 18.963 21.694 16.514 20.757 16.514 19.594C 16.514 18.431 18.965 17.5 21.987 17.5C 25.009 17.5 27.5 18.407 27.5 19.565ZM 27.5 23.017C 27.5 24.175 25.011 25.147 21.987 25.147C 18.963 25.147 16.514 24.208 16.514 23.047M 16.514 19.6L 16.514 26.411C 16.514 27.567 18.964 28.511 21.987 28.511C 25.01 28.511 27.5 27.538 27.5 26.381L 27.5 19.565"></path></g></g></g><g id="g-root-tx_no_1upxgd91okuwi6-fill" data-item-order="0" transform="translate(1514.26953125, 360.9921875)"><g id="tx_no_1upxgd91okuwi6-fill-merged" stroke="none" fill="#1eabda" fill-opacity="1"><g><text style="font: 12px Roboto, sans-serif; white-space: pre;" transform="translate(18.73828125, 17)" font-size="12px" font-family="Roboto, sans-serif"><tspan x="-6.74" y="6.5" dominant-baseline="ideographic">no</tspan></text></g></g></g><g id="g-root-tx_no_1upxgd91okuwi6-stroke" data-item-order="0" transform="translate(1514.26953125, 360.9921875)"></g><g id="g-root-tx_no_1hbchel1ol7klc-fill" data-item-order="0" transform="translate(1312.26953125, 380.9921875)"><g id="tx_no_1hbchel1ol7klc-fill-merged" stroke="none" fill="#1eabda" fill-opacity="1"><g><text style="font: 12px Roboto, sans-serif; white-space: pre;" transform="translate(18.73828125, 17)" font-size="12px" font-family="Roboto, sans-serif"><tspan x="-6.74" y="6.5" dominant-baseline="ideographic">no</tspan></text></g></g></g><g id="g-root-tx_no_1hbchel1ol7klc-stroke" data-item-order="0" transform="translate(1312.26953125, 380.9921875)"></g><g id="g-root-tx_yes_4kgen11okuvwl-fill" data-item-order="0" transform="translate(1613.92578125, 448.9921875)"><g id="tx_yes_4kgen11okuvwl-fill-merged" stroke="none" fill="#1eabda" fill-opacity="1"><g><text style="font: 12px Roboto, sans-serif; white-space: pre;" transform="translate(21.08203125, 17)" font-size="12px" font-family="Roboto, sans-serif"><tspan x="-9.08" y="6.5" dominant-baseline="ideographic">yes</tspan></text></g></g></g><g id="g-root-tx_yes_4kgen11okuvwl-stroke" data-item-order="0" transform="translate(1613.92578125, 448.9921875)"></g><g id="g-root-tx_jsonfrid_1unfn6l1oknw1y-fill" data-item-order="0" transform="translate(1879.1328125, 368.990234375)"><g id="tx_jsonfrid_1unfn6l1oknw1y-fill-merged" stroke="none" fill="#3cc583" fill-opacity="1"><g><text style="font: bold 12px Roboto, sans-serif; white-space: pre;" transform="translate(56.5078125, 23.99609375)" font-weight="bold" font-size="12px" font-family="Roboto, sans-serif"><tspan x="-43.29" y="-0.5" dominant-baseline="ideographic">本地 JSON 文件 </tspan><tspan x="-44.51" y="13.5" dominant-baseline="ideographic">fridge_data.json</tspan></text></g></g></g><g id="g-root-tx_jsonfrid_1unfn6l1oknw1y-stroke" data-item-order="0" transform="translate(1879.1328125, 368.990234375)"></g><g id="g-root-tx_ignore_18n79ct1okz6de-fill" data-item-order="0" transform="translate(1702.3515625, 438.9921875)"><g id="tx_ignore_18n79ct1okz6de-fill-merged" stroke="none" fill="#1eabda" fill-opacity="1"><g><text style="font: bold 12px Roboto, sans-serif; white-space: pre;" transform="translate(29.15625, 17)" font-weight="bold" font-size="12px" font-family="Roboto, sans-serif"><tspan x="-17.16" y="6.5" dominant-baseline="ideographic">ignore</tspan></text></g></g></g><g id="g-root-tx_ignore_18n79ct1okz6de-stroke" data-item-order="0" transform="translate(1702.3515625, 438.9921875)"></g><g id="g-root-tx_httpsync_1q9hkbh1okwcnf-fill" data-item-order="0" transform="translate(2082.08203125, 369.486328125)"><g id="tx_httpsync_1q9hkbh1okwcnf-fill-merged" stroke="none" fill="#1eabda" fill-opacity="1"><g><text style="font: bold 12px Roboto, sans-serif; white-space: pre;" transform="translate(42.26953125, 17)" font-weight="bold" font-size="12px" font-family="Roboto, sans-serif"><tspan x="-30.27" y="6.5" dominant-baseline="ideographic">http_sync()</tspan></text></g></g></g><g id="g-root-tx_httpsync_1q9hkbh1okwcnf-stroke" data-item-order="0" transform="translate(2082.08203125, 369.486328125)"></g><g id="g-root-tx__zs6q711okz40b-fill" data-item-order="0" transform="translate(1688.0078125, 458.9921875)"><g id="tx__zs6q711okz40b-fill-merged" stroke="none" fill="#484848" fill-opacity="1"><g><text style="font: 10.5px Roboto, sans-serif; white-space: pre;" transform="translate(43.5, 16)" font-size="10.5px" font-family="Roboto, sans-serif"><tspan x="-31.5" y="6" dominant-baseline="ideographic">忽略该事件。</tspan></text></g></g></g><g id="g-root-tx__zs6q711okz40b-stroke" data-item-order="0" transform="translate(1688.0078125, 458.9921875)"></g><g id="g-root-tx_flaskapi_18gc4kd1ol4pvm-fill" data-item-order="0" transform="translate(2267.67578125, 356.490234375)"><g id="tx_flaskapi_18gc4kd1ol4pvm-fill-merged" stroke="none" fill="#1eabda" fill-opacity="1"><g><text style="font: bold 12px Roboto, sans-serif; white-space: pre;" transform="translate(54.59765625, 23.99609375)" font-weight="bold" font-size="12px" font-family="Roboto, sans-serif"><tspan x="-42.6" y="-0.5" dominant-baseline="ideographic">Flask /api/sync </tspan><tspan x="-25.23" y="13.5" dominant-baseline="ideographic">endpoint</tspan></text></g></g></g><g id="g-root-tx_flaskapi_18gc4kd1ol4pvm-stroke" data-item-order="0" transform="translate(2267.67578125, 356.490234375)"></g><g id="g-root-he_mg3h991ol7klk-fill" data-item-order="2" transform="translate(392.078125, 163.9921875)"></g><g id="g-root-he_mg3h991ol7klk-stroke" data-item-order="2" transform="translate(392.078125, 163.9921875)"><g id="he_mg3h991ol7klk-stroke" fill="none" stroke-linecap="round" stroke-linejoin="round" stroke-miterlimit="4" stroke="#484848" stroke-width="2" stroke-opacity="1"><g><path d="M 10 10L 46 10L 80 10"></path><path d="M 74 16.5L 80.5 10L 74 3.5" stroke-dasharray="none"></path></g></g></g><g id="g-root-he_i09z4t1ol7le0-fill" data-item-order="2" transform="translate(1203.0078125, 163.9921875)"></g><g id="g-root-he_i09z4t1ol7le0-stroke" data-item-order="2" transform="translate(1203.0078125, 163.9921875)"><g id="he_i09z4t1ol7le0-stroke" fill="none" stroke-linecap="round" stroke-linejoin="round" stroke-miterlimit="4" stroke="#484848" stroke-width="2" stroke-opacity="1"><g><path d="M 10 10L 46 10L 80 10"></path><path d="M 74 16.5L 80.5 10L 74 3.5" stroke-dasharray="none"></path></g></g></g><g id="g-root-he_dl2y3h1ol7j0s-fill" data-item-order="2" transform="translate(1370.5078125, 163.9921875)"></g><g id="g-root-he_dl2y3h1ol7j0s-stroke" data-item-order="2" transform="translate(1370.5078125, 163.9921875)"><g id="he_dl2y3h1ol7j0s-stroke" fill="none" stroke-linecap="round" stroke-linejoin="round" stroke-miterlimit="4" stroke="#484848" stroke-width="2" stroke-opacity="1"><g><path d="M 10 10L 44.1 10L 270.5 10C 277.13 10 282.5 15.37 282.5 22L 282.5 22.1L 282.5 114C 282.5 120.63 287.87 126 294.5 126L 294.6 126L 316.5 126"></path><path d="M 310.5 132.5L 317 126L 310.5 119.5" stroke-dasharray="none"></path></g></g></g><g id="g-root-he_mg3h991ol7klm-fill" data-item-order="2" transform="translate(596.609375, 163.9921875)"></g><g id="g-root-he_mg3h991ol7klm-stroke" data-item-order="2" transform="translate(596.609375, 163.9921875)"><g id="he_mg3h991ol7klm-stroke" fill="none" stroke-linecap="round" stroke-linejoin="round" stroke-miterlimit="4" stroke="#484848" stroke-width="2" stroke-opacity="1"><g><path d="M 10 10L 46 10L 80 10"></path><path d="M 74 16.5L 80.5 10L 74 3.5" stroke-dasharray="none"></path></g></g></g><g id="g-root-he_mg3h991ol7klo-fill" data-item-order="2" transform="translate(795.6796875, 163.9921875)"></g><g id="g-root-he_mg3h991ol7klo-stroke" data-item-order="2" transform="translate(795.6796875, 163.9921875)"><g id="he_mg3h991ol7klo-stroke" fill="none" stroke-linecap="round" stroke-linejoin="round" stroke-miterlimit="4" stroke="#484848" stroke-width="2" stroke-opacity="1"><g><path d="M 10 10L 46 10L 80 10"></path><path d="M 74 16.5L 80.5 10L 74 3.5" stroke-dasharray="none"></path></g></g></g><g id="g-root-he_mg3h991ol7klq-fill" data-item-order="2" transform="translate(1001.0078125, 163.9921875)"></g><g id="g-root-he_mg3h991ol7klq-stroke" data-item-order="2" transform="translate(1001.0078125, 163.9921875)"><g id="he_mg3h991ol7klq-stroke" fill="none" stroke-linecap="round" stroke-linejoin="round" stroke-miterlimit="4" stroke="#484848" stroke-width="2" stroke-opacity="1"><g><path d="M 10 10L 46 10L 80 10"></path><path d="M 74 16.5L 80.5 10L 74 3.5" stroke-dasharray="none"></path></g></g></g><g id="g-root-he_i09z4t1ol7le2-fill" data-item-order="2" transform="translate(1138.0078125, 219.9921875)"></g><g id="g-root-he_i09z4t1ol7le2-stroke" data-item-order="2" transform="translate(1138.0078125, 219.9921875)"><g id="he_i09z4t1ol7le2-stroke" fill="none" stroke-linecap="round" stroke-linejoin="round" stroke-miterlimit="4" stroke="#484848" stroke-width="2" stroke-opacity="1"><g><path d="M 10 10L 10 17.5L 10 58C 10 64.63 15.37 70 22 70L 22.1 70L 145 70"></path><path d="M 139 76.5L 145.5 70L 139 63.5" stroke-dasharray="none"></path></g></g></g><g id="g-root-he_mg3h991ol7kli-fill" data-item-order="2" transform="translate(147.46878051757812, 159.9921875)"></g><g id="g-root-he_mg3h991ol7kli-stroke" data-item-order="2" transform="translate(147.46878051757812, 159.9921875)"><g id="he_mg3h991ol7kli-stroke" fill="none" stroke-linecap="round" stroke-linejoin="round" stroke-miterlimit="4" stroke="#484848" stroke-width="2" stroke-opacity="1"><g><path d="M 10 10L 14.5 10L 34 10C 35.85 10 37.9 10.17 40.1 10.5C 41.43 10.71 43.5 11.24 46 12C 48.5 12.76 50.57 13.29 51.9 13.5C 54.1 13.83 56.15 14 58 14L 58.1 14L 80 14"></path><path d="M 74 20.5L 80.5 14L 74 7.5" stroke-dasharray="none"></path></g></g></g><g id="g-root-he_i09z4t1ol7le4-fill" data-item-order="2" transform="translate(1405.0078125, 279.9921875)"></g><g id="g-root-he_i09z4t1ol7le4-stroke" data-item-order="2" transform="translate(1405.0078125, 279.9921875)"><g id="he_i09z4t1ol7le4-stroke" fill="none" stroke-linecap="round" stroke-linejoin="round" stroke-miterlimit="4" stroke="#484848" stroke-width="2" stroke-opacity="1"><g><path d="M 10 10L 46 10L 80 10"></path><path d="M 74 16.5L 80.5 10L 74 3.5" stroke-dasharray="none"></path></g></g></g><g id="g-root-he_dl2y3h1ol7j0q-fill" data-item-order="2" transform="translate(1542.0078125, 279.9921875)"></g><g id="g-root-he_dl2y3h1ol7j0q-stroke" data-item-order="2" transform="translate(1542.0078125, 279.9921875)"><g id="he_dl2y3h1ol7j0q-stroke" fill="none" stroke-linecap="round" stroke-linejoin="round" stroke-miterlimit="4" stroke="#484848" stroke-width="2" stroke-opacity="1"><g><path d="M 10 114L 10 110L 10 94C 10 87.37 15.37 82 22 82L 22.1 82L 99 82C 105.63 82 111 76.63 111 70L 111 69.9L 111 22C 111 15.37 116.37 10 123 10L 123.1 10L 145 10"></path><path d="M 139 16.5L 145.5 10L 139 3.5" stroke-dasharray="none"></path></g></g></g><g id="g-root-he_dl2y3h1ol7j0u-fill" data-item-order="2" transform="translate(1604.0078125, 279.9921875)"></g><g id="g-root-he_dl2y3h1ol7j0u-stroke" data-item-order="2" transform="translate(1604.0078125, 279.9921875)"><g id="he_dl2y3h1ol7j0u-stroke" fill="none" stroke-linecap="round" stroke-linejoin="round" stroke-miterlimit="4" stroke="#484848" stroke-width="2" stroke-opacity="1"><g><path d="M 10 10L 47.5 10L 83 10"></path><path d="M 77 16.5L 83.5 10L 77 3.5" stroke-dasharray="none"></path></g></g></g><g id="g-root-he_959fz11ol7jt6-fill" data-item-order="2" transform="translate(1798.1328125, 279.9921875)"></g><g id="g-root-he_959fz11ol7jt6-stroke" data-item-order="2" transform="translate(1798.1328125, 279.9921875)"><g id="he_959fz11ol7jt6-stroke" fill="none" stroke-linecap="round" stroke-linejoin="round" stroke-miterlimit="4" stroke="#484848" stroke-width="2" stroke-opacity="1"><g><path d="M 10 10L 14.5 10L 34 10C 40.63 10 46 15.37 46 22L 46 22.1L 46 95C 46 101.63 51.37 107 58 107L 58.1 107L 80 107"></path><path d="M 74 113.5L 80.5 107L 74 100.5" stroke-dasharray="none"></path></g></g></g><g id="g-root-he_i09z4t1ol7le6-fill" data-item-order="2" transform="translate(1340.0078125, 335.9921875)"></g><g id="g-root-he_i09z4t1ol7le6-stroke" data-item-order="2" transform="translate(1340.0078125, 335.9921875)"><g id="he_i09z4t1ol7le6-stroke" fill="none" stroke-linecap="round" stroke-linejoin="round" stroke-miterlimit="4" stroke="#484848" stroke-width="2" stroke-opacity="1"><g><path d="M 10 10L 10 23L 10 102C 10 108.63 15.37 114 22 114L 22.1 114L 145 114"></path><path d="M 139 120.5L 145.5 114L 139 107.5" stroke-dasharray="none"></path></g></g></g><g id="g-root-he_i0wg7x1ol7j0g-fill" data-item-order="2" transform="translate(1764.0078125, 376.986328125)"></g><g id="g-root-he_i0wg7x1ol7j0g-stroke" data-item-order="2" transform="translate(1764.0078125, 376.986328125)"><g id="he_i0wg7x1ol7j0g-stroke" fill="none" stroke-linecap="round" stroke-linejoin="round" stroke-miterlimit="4" stroke="#484848" stroke-width="2" stroke-opacity="1"><g><path d="M 10 73L 18.8 73L 68.1 73C 74.73 73 80.1 67.63 80.1 61L 80.1 60.9L 80.1 22C 80.1 15.37 85.47 10 92.1 10L 92.2 10L 114.1 10"></path><path d="M 108.1 16.5L 114.6 10L 108.1 3.5" stroke-dasharray="none"></path></g></g></g><g id="g-root-he_959fz11ol7jt8-fill" data-item-order="2" transform="translate(1981.1484375, 376.486328125)"></g><g id="g-root-he_959fz11ol7jt8-stroke" data-item-order="2" transform="translate(1981.1484375, 376.486328125)"><g id="he_959fz11ol7jt8-stroke" fill="none" stroke-linecap="round" stroke-linejoin="round" stroke-miterlimit="4" stroke="#484848" stroke-width="2" stroke-opacity="1"><g><path d="M 10 10.5L 14.5 10.5L 34 10.5L 40 10.4L 46 10.2L 52 10.1L 58 10L 58.1 10L 80 10"></path><path d="M 74 16.5L 80.5 10L 74 3.5" stroke-dasharray="none"></path></g></g></g><g id="g-root-he_959fz11ol7jta-fill" data-item-order="2" transform="translate(2175.5546875, 376.486328125)"></g><g id="g-root-he_959fz11ol7jta-stroke" data-item-order="2" transform="translate(2175.5546875, 376.486328125)"><g id="he_959fz11ol7jta-stroke" fill="none" stroke-linecap="round" stroke-linejoin="round" stroke-miterlimit="4" stroke="#484848" stroke-width="2" stroke-opacity="1"><g><path d="M 10 10L 46 10L 80 10"></path><path d="M 74 16.5L 80.5 10L 74 3.5" stroke-dasharray="none"></path></g></g></g><g id="g-root-he_dl2y3h1ol7jsw-fill" data-item-order="2" transform="translate(2376.9921875, 376.486328125)"></g><g id="g-root-he_dl2y3h1ol7jsw-stroke" data-item-order="2" transform="translate(2376.9921875, 376.486328125)"><g id="he_dl2y3h1ol7jsw-stroke" fill="none" stroke-linecap="round" stroke-linejoin="round" stroke-miterlimit="4" stroke="#484848" stroke-width="2" stroke-opacity="1"><g><path d="M 10 10L 14.5 10L 34 10L 40 10.1L 46 10.3L 52 10.4L 58 10.5L 58.1 10.5L 80 10.5"></path><path d="M 74 17L 80.5 10.5L 74 4" stroke-dasharray="none"></path></g></g></g><g id="g-root-he_dl2y3h1ol7j0o-fill" data-item-order="2" transform="translate(1607.0078125, 439.9921875)"></g><g id="g-root-he_dl2y3h1ol7j0o-stroke" data-item-order="2" transform="translate(1607.0078125, 439.9921875)"><g id="he_dl2y3h1ol7j0o-stroke" fill="none" stroke-linecap="round" stroke-linejoin="round" stroke-miterlimit="4" stroke="#484848" stroke-width="2" stroke-opacity="1"><g><path d="M 10 10L 46 10L 80 10"></path><path d="M 74 16.5L 80.5 10L 74 3.5" stroke-dasharray="none"></path></g></g></g></g></g><path id="wdbp1d91n76rk2" d="M65.283 12.757a.35.35 0 0 0 .584.157l5.203-5.141-6.183 3.523.396 1.461zm-2.216-11.7a.35.35 0 0 0-.522.305v3.111l3.276-1.868-2.754-1.548zm3.728 2.105l-4.25 2.421v2.445l6.391-3.644-2.141-1.222zm4.708 3.303a.35.35 0 0 0 0-.609l-1.592-.9-7.365 4.199v1.782a.35.35 0 0 0 .523.305l8.435-4.777z M44.542 2.513c0-.433.355-.783.792-.783s.792.35.792.783-.355.783-.792.783-.792-.35-.792-.783zm59.171 0c0-.433.355-.783.792-.783s.792.35.792.783-.355.783-.792.783-.792-.35-.792-.783zm-85.951 7.636h-1.27v-.487c-.276.201-.864.609-1.881.609-1.202 0-2.274-.794-2.137-2.078.118-1.106 1.153-1.584 1.848-1.727l2.17-.345c0-.539-.29-.956-1.064-1.006s-1.21.305-1.571 1.017l-1.124-.605c1.218-2.631 5.029-1.764 5.029.414v4.207zm-1.27-2.86c.006.396-.062 1.112-.819 1.59-.587.37-1.841.299-1.903-.395-.049-.555.461-.791.906-.898l1.816-.297zm72.662 2.86h-1.27v-.487c-.276.201-.864.609-1.881.609-1.202 0-2.274-.794-2.137-2.078.118-1.106 1.153-1.584 1.848-1.727l2.17-.345c0-.539-.29-.956-1.064-1.006s-1.21.305-1.571 1.017l-1.124-.605c1.218-2.631 5.029-1.764 5.029.414v4.207zm-1.27-2.86c.006.396-.062 1.112-.82 1.59-.587.37-1.841.299-1.903-.395-.049-.555.461-.791.906-.898l1.816-.297zM99.096 10.149H97.85v-8.45h1.246v4.895l2.68-2.559h1.738l-2.633 2.535 2.715 3.578h-1.556l-2.077-2.707-.867.844v1.863zm6.053-6.114h-1.255v6.113h1.255V4.035zm-59.2 0h-1.255v6.113h1.255V4.035zm5.584 6.113V1.697h1.255v2.695c.361-.346 1-.485 1.47-.485 1.452 0 2.477 1.082 2.457 2.448v3.792h-1.27v-3.68c0-.408-.214-1.339-1.315-1.339-.968 0-1.342.756-1.342 1.339v3.681h-1.255zm-4.76-4.894V4.039h.621a.45.45 0 0 0 .45-.45v-.855h1.251v1.305h1.309v1.215h-1.309v3.109c0 .293.105.664.648.664.365 0 .531-.035.736-.07v1.137s-.361.113-.857.113c-1.398 0-1.777-1.051-1.777-1.788V5.254h-1.071zM36.528 4.039h-1.394l2.191 6.106h1.125l1.234-3.918 1.238 3.918h1.129l2.188-6.106h-1.383l-1.359 3.93-1.256-3.93h-1.124l-1.242 3.957-1.348-3.957zM26.212 7.141c-.02 1.566 1.187 3.129 3.223 3.129 1.566 0 2.383-.918 2.734-1.719L31.172 8c-.315.399-.801 1.094-1.738 1.094-1.145 0-1.825-.781-1.891-1.52h4.625c.074-.284.148-.995-.03-1.559-.336-1.064-1.221-2.102-2.839-2.102s-3.088 1.152-3.088 3.227zm1.363-.75h3.348c-.055-.43-.566-1.301-1.623-1.301a1.79 1.79 0 0 0-1.725 1.301zm-8.758.75c.038 1.758 1.277 3.133 3.145 3.133 1.074 0 1.723-.477 1.961-.672v.547h1.242V1.703h-1.258v2.888c-.414-.36-1.062-.68-1.93-.68-1.91 0-3.198 1.473-3.16 3.23zm1.309-.08c0 1.119.723 1.978 1.836 1.978a1.88 1.88 0 0 0 1.94-1.904c0-1.371-1.011-1.99-1.972-1.99s-1.805.798-1.805 1.916zm76.683-.028C96.771 5.275 95.532 3.9 93.664 3.9c-1.074 0-1.723.477-1.961.672v-.547h-1.242v8.22h1.258V9.583c.414.36 1.063.68 1.93.68 1.91 0 3.198-1.473 3.16-3.23zm-1.309.08c0-1.119-.723-1.978-1.836-1.978a1.88 1.88 0 0 0-1.94 1.904c0 1.371 1.011 1.99 1.972 1.99S95.5 8.231 95.5 7.113zM106.441 10.173V4.036h1.254v.382c.361-.346 1-.485 1.47-.485 1.452 0 2.477 1.082 2.457 2.448v3.792h-1.27V6.492c0-.408-.214-1.339-1.315-1.339-.969 0-1.342.756-1.342 1.339v3.681h-1.254zm-30.383-.021V1.824h1.084l4.215 5.777V1.824h1.32v8.328h-1.094l-4.207-5.796v5.796h-1.319zM5.24 10.149H4V2.377h1.014l2.664 3.597 2.654-3.592h1.03v7.766h-1.256V4.762L7.678 8.068 5.24 4.742v5.407z" transform="translate(2473.9921875, 519.9921875)" fill="#80808088" stroke="none"></path></svg>